<?xml version="1.0" encoding="UTF-8"?>
<svg id="Layer_1" data-name="Layer 1" xmlns="http://www.w3.org/2000/svg" viewBox="0 0 48.6 8.6">
  <defs>
    <style>
      .cls-1, .cls-2 {
        fill: #fff;
        fill-rule: evenodd;
      }

      .cls-1, .cls-2, .cls-3, .cls-4 {
        stroke-width: 0px;
      }

      .cls-1, .cls-3 {
        opacity: .4;
      }

      .cls-3, .cls-4 {
        fill: #c40505;
      }
    </style>
  </defs>
  <circle class="cls-4" cx="4.3" cy="4.3" r="4.3"/>
  <path class="cls-2" d="M5.89,2.66s-.11-.06-.17-.06c0,0,0,0,0,0h-.32s0,1.71,0,1.71h.32s0,0,0,0c0,0,0,0,0,0,.06,0,.12-.02.17-.06.04-.04.07-.09.08-.14v-1.3c-.01-.06-.04-.11-.08-.14ZM5.03,4.45v-1.85s-1.95,0-1.95,0h0s-.09.02-.12.05c-.03.03-.06.07-.06.12l-.26,1.71h0s0,.05,0,.08c0,.03.02.05.04.07.02.02.04.04.07.05s.05.02.08.02h0s1.07,0,1.07,0c.1,0,.19.08.19.19v.76c0,.1.04.2.11.27.04.04.1.07.15.09l.68-1.54ZM5.34,4.68l-.71,1.59c-.03.07-.1.11-.17.11-.2,0-.39-.08-.54-.22-.14-.14-.22-.33-.22-.54v-.57s-.88,0-.88,0c-.08,0-.16-.02-.24-.05-.08-.03-.14-.08-.2-.15-.05-.06-.09-.14-.12-.21-.02-.08-.03-.16-.02-.24l.26-1.71h0c.02-.14.09-.26.19-.35.1-.09.24-.14.37-.14h2.64c.15,0,.3.05.42.15.12.1.19.24.21.39,0,0,0,.02,0,.03v1.33s0,.02,0,.03c-.02.15-.1.29-.21.39-.12.1-.26.15-.42.15h-.38Z"/>
  <circle class="cls-4" cx="14.3" cy="4.3" r="4.3"/>
  <path class="cls-2" d="M15.89,2.66s-.11-.06-.17-.06c0,0,0,0,0,0h-.32s0,1.71,0,1.71h.32s0,0,0,0c0,0,0,0,0,0,.06,0,.12-.02.17-.06.04-.04.07-.09.08-.14v-1.3c-.01-.06-.04-.11-.08-.14ZM15.03,4.45v-1.85s-1.95,0-1.95,0h0s-.09.02-.12.05c-.03.03-.06.07-.06.12l-.26,1.71h0s0,.05,0,.08c0,.03.02.05.04.07.02.02.04.04.07.05s.05.02.08.02h0s1.07,0,1.07,0c.1,0,.19.08.19.19v.76c0,.1.04.2.11.27.04.04.1.07.15.09l.68-1.54ZM15.34,4.68l-.71,1.59c-.03.07-.1.11-.17.11-.2,0-.39-.08-.54-.22-.14-.14-.22-.33-.22-.54v-.57s-.88,0-.88,0c-.08,0-.16-.02-.24-.05-.08-.03-.14-.08-.2-.15-.05-.06-.09-.14-.12-.21-.02-.08-.03-.16-.02-.24l.26-1.71h0c.02-.14.09-.26.19-.35.1-.09.24-.14.37-.14h2.64c.15,0,.3.05.42.15.12.1.19.24.21.39,0,0,0,.02,0,.03v1.33s0,.02,0,.03c-.02.15-.1.29-.21.39-.12.1-.26.15-.42.15h-.38Z"/>
  <circle class="cls-3" cx="24.3" cy="4.3" r="4.3"/>
  <path class="cls-1" d="M25.89,2.66s-.11-.06-.17-.06c0,0,0,0,0,0h-.32s0,1.71,0,1.71h.32s0,0,0,0c0,0,0,0,0,0,.06,0,.12-.02.17-.06.04-.04.07-.09.08-.14v-1.3c-.01-.06-.04-.11-.08-.14ZM25.03,4.45v-1.85s-1.95,0-1.95,0h0s-.09.02-.12.05c-.03.03-.06.07-.06.12l-.26,1.71h0s0,.05,0,.08c0,.03.02.05.04.07.02.02.04.04.07.05s.05.02.08.02h0s1.07,0,1.07,0c.1,0,.19.08.19.19v.76c0,.1.04.2.11.27.04.04.1.07.15.09l.68-1.54ZM25.34,4.68l-.71,1.59c-.03.07-.1.11-.17.11-.2,0-.39-.08-.54-.22-.14-.14-.22-.33-.22-.54v-.57s-.88,0-.88,0c-.08,0-.16-.02-.24-.05-.08-.03-.14-.08-.2-.15-.05-.06-.09-.14-.12-.21-.02-.08-.03-.16-.02-.24l.26-1.71h0c.02-.14.09-.26.19-.35.1-.09.24-.14.37-.14h2.64c.15,0,.3.05.42.15.12.1.19.24.21.39,0,0,0,.02,0,.03v1.33s0,.02,0,.03c-.02.15-.1.29-.21.39-.12.1-.26.15-.42.15h-.38Z"/>
  <circle class="cls-3" cx="34.3" cy="4.3" r="4.3"/>
  <path class="cls-1" d="M35.89,2.66s-.11-.06-.17-.06c0,0,0,0,0,0h-.32s0,1.71,0,1.71h.32s0,0,0,0c0,0,0,0,0,0,.06,0,.12-.02.17-.06.04-.04.07-.09.08-.14v-1.3c-.01-.06-.04-.11-.08-.14ZM35.03,4.45v-1.85s-1.95,0-1.95,0h0s-.09.02-.12.05c-.03.03-.06.07-.06.12l-.26,1.71h0s0,.05,0,.08c0,.03.02.05.04.07.02.02.04.04.07.05s.05.02.08.02h0s1.07,0,1.07,0c.1,0,.19.08.19.19v.76c0,.1.04.2.11.27.04.04.1.07.15.09l.68-1.54ZM35.34,4.68l-.71,1.59c-.03.07-.1.11-.17.11-.2,0-.39-.08-.54-.22-.14-.14-.22-.33-.22-.54v-.57s-.88,0-.88,0c-.08,0-.16-.02-.24-.05-.08-.03-.14-.08-.2-.15-.05-.06-.09-.14-.12-.21-.02-.08-.03-.16-.02-.24l.26-1.71h0c.02-.14.09-.26.19-.35.1-.09.24-.14.37-.14h2.64c.15,0,.3.05.42.15.12.1.19.24.21.39,0,0,0,.02,0,.03v1.33s0,.02,0,.03c-.02.15-.1.29-.21.39-.12.1-.26.15-.42.15h-.38Z"/>
  <circle class="cls-3" cx="44.3" cy="4.3" r="4.3"/>
  <path class="cls-1" d="M45.89,2.66s-.11-.06-.17-.06c0,0,0,0,0,0h-.32s0,1.71,0,1.71h.32s0,0,0,0c0,0,0,0,0,0,.06,0,.12-.02.17-.06.04-.04.07-.09.08-.14v-1.3c-.01-.06-.04-.11-.08-.14ZM45.03,4.45v-1.85s-1.95,0-1.95,0h0s-.09.02-.12.05c-.03.03-.06.07-.06.12l-.26,1.71h0s0,.05,0,.08c0,.03.02.05.04.07.02.02.04.04.07.05s.05.02.08.02h0s1.07,0,1.07,0c.1,0,.19.08.19.19v.76c0,.1.04.2.11.27.04.04.1.07.15.09l.68-1.54ZM45.34,4.68l-.71,1.59c-.03.07-.1.11-.17.11-.2,0-.39-.08-.54-.22-.14-.14-.22-.33-.22-.54v-.57s-.88,0-.88,0c-.08,0-.16-.02-.24-.05-.08-.03-.14-.08-.2-.15-.05-.06-.09-.14-.12-.21-.02-.08-.03-.16-.02-.24l.26-1.71h0c.02-.14.09-.26.19-.35.1-.09.24-.14.37-.14h2.64c.15,0,.3.05.42.15.12.1.19.24.21.39,0,0,0,.02,0,.03v1.33s0,.02,0,.03c-.02.15-.1.29-.21.39-.12.1-.26.15-.42.15h-.38Z"/>
</svg>