<?xml version="1.0" encoding="UTF-8"?>
<svg id="Layer_1" data-name="Layer 1" xmlns="http://www.w3.org/2000/svg" viewBox="0 0 20.74 23.6">
  <defs>
    <style>
      .cls-1 {
        stroke-width: 0px;
      }
    </style>
  </defs>
  <path class="cls-1" d="M10.87,0c.47.1.95.17,1.41.31,2.71.87,4.52,3.54,4.29,6.3-.23,2.95-2.35,5.28-5.21,5.74-3.53.57-6.82-1.95-7.18-5.51C3.84,3.46,6.31.4,9.68.04c.06,0,.12-.03.18-.04.34,0,.68,0,1.01,0Z"/>
  <path class="cls-1" d="M10.37,23.6c-3.18,0-6.36,0-9.54,0-.58,0-.84-.26-.83-.85.06-4.37,3.29-8.12,7.62-8.82.39-.06.79-.09,1.19-.1,1-.01,2-.01,2.99,0,4.01.04,7.55,2.77,8.6,6.65.2.75.31,1.52.33,2.29,0,.55-.26.83-.81.83-3.19,0-6.37,0-9.56,0Z"/>
</svg>