<?xml version="1.0" encoding="UTF-8"?>
<svg id="Layer_1" data-name="Layer 1" xmlns="http://www.w3.org/2000/svg" viewBox="0 0 48.6 8.6">
  <defs>
    <style>
      .cls-1 {
        opacity: .4;
      }

      .cls-2 {
        fill: #fff;
      }

      .cls-2, .cls-3 {
        stroke-width: 0px;
      }

      .cls-3 {
        fill: #4ebe27;
      }
    </style>
  </defs>
  <g>
    <circle class="cls-3" cx="4.3" cy="4.3" r="4.3"/>
    <g>
      <path class="cls-2" d="M3.95,4.37c-.28-.28-.56-.56-.84-.84.3-.3.61-.61.91-.91.28.28.56.56.84.84-.3.3-.6.6-.91.91Z"/>
      <path class="cls-2" d="M4.64,3.84c.08.07.17.15.26.23.44.39.88.78,1.32,1.17.14.12.16.31.07.46-.13.19-.4.21-.56.04-.15-.16-.29-.32-.43-.49-.32-.36-.64-.72-.95-1.08-.01-.01-.02-.02-.03-.03.1-.1.21-.2.32-.31Z"/>
      <path class="cls-2" d="M3.44,6.44c-.35,0-.71,0-1.06,0-.11,0-.13-.03-.13-.14,0-.07,0-.14,0-.2,0-.15.13-.28.28-.28.61,0,1.21,0,1.82,0,.16,0,.28.12.29.28,0,.06,0,.13,0,.19,0,.11-.03.14-.14.14-.35,0-.71,0-1.06,0Z"/>
      <path class="cls-2" d="M2.56,5.73c0-.05,0-.1,0-.14,0-.15.13-.27.28-.27.4,0,.8,0,1.2,0,.15,0,.27.13.28.28,0,.04,0,.09,0,.13h-1.76Z"/>
      <path class="cls-2" d="M2.87,3.51c.06,0,.11.02.15.06.3.3.6.59.89.89.09.09.08.22,0,.3-.08.08-.21.09-.3,0-.3-.3-.6-.59-.89-.89-.07-.07-.08-.15-.04-.24.04-.08.1-.13.2-.13Z"/>
      <path class="cls-2" d="M4.22,2.16c.06,0,.11.02.15.06.3.3.59.59.89.89.09.09.09.22,0,.3-.08.08-.22.09-.3,0-.3-.3-.6-.59-.89-.89-.07-.07-.08-.15-.04-.24.04-.08.11-.13.2-.13Z"/>
    </g>
  </g>
  <g>
    <circle class="cls-3" cx="14.3" cy="4.3" r="4.3"/>
    <g>
      <path class="cls-2" d="M13.95,4.37c-.28-.28-.56-.56-.84-.84.3-.3.61-.61.91-.91.28.28.56.56.84.84-.3.3-.6.6-.91.91Z"/>
      <path class="cls-2" d="M14.64,3.84c.08.07.17.15.26.23.44.39.88.78,1.32,1.17.14.12.16.31.07.46-.13.19-.4.21-.56.04-.15-.16-.29-.32-.43-.49-.32-.36-.64-.72-.95-1.08-.01-.01-.02-.02-.03-.03.1-.1.21-.2.32-.31Z"/>
      <path class="cls-2" d="M13.44,6.44c-.35,0-.71,0-1.06,0-.11,0-.13-.03-.13-.14,0-.07,0-.14,0-.2,0-.15.13-.28.28-.28.61,0,1.21,0,1.82,0,.16,0,.28.12.29.28,0,.06,0,.13,0,.19,0,.11-.03.14-.14.14-.35,0-.71,0-1.06,0Z"/>
      <path class="cls-2" d="M12.56,5.73c0-.05,0-.1,0-.14,0-.15.13-.27.28-.27.4,0,.8,0,1.2,0,.15,0,.27.13.28.28,0,.04,0,.09,0,.13h-1.76Z"/>
      <path class="cls-2" d="M12.87,3.51c.06,0,.11.02.15.06.3.3.6.59.89.89.09.09.08.22,0,.3-.08.08-.21.09-.3,0-.3-.3-.6-.59-.89-.89-.07-.07-.08-.15-.04-.24.04-.08.1-.13.2-.13Z"/>
      <path class="cls-2" d="M14.22,2.16c.06,0,.11.02.15.06.3.3.59.59.89.89.09.09.09.22,0,.3-.08.08-.22.09-.3,0-.3-.3-.6-.59-.89-.89-.07-.07-.08-.15-.04-.24.04-.08.11-.13.2-.13Z"/>
    </g>
  </g>
  <g>
    <circle class="cls-3" cx="24.3" cy="4.3" r="4.3"/>
    <g>
      <path class="cls-2" d="M23.95,4.37c-.28-.28-.56-.56-.84-.84.3-.3.61-.61.91-.91.28.28.56.56.84.84-.3.3-.6.6-.91.91Z"/>
      <path class="cls-2" d="M24.64,3.84c.08.07.17.15.26.23.44.39.88.78,1.32,1.17.14.12.16.31.07.46-.13.19-.4.21-.56.04-.15-.16-.29-.32-.43-.49-.32-.36-.64-.72-.95-1.08-.01-.01-.02-.02-.03-.03.1-.1.21-.2.32-.31Z"/>
      <path class="cls-2" d="M23.44,6.44c-.35,0-.71,0-1.06,0-.11,0-.13-.03-.13-.14,0-.07,0-.14,0-.2,0-.15.13-.28.28-.28.61,0,1.21,0,1.82,0,.16,0,.28.12.29.28,0,.06,0,.13,0,.19,0,.11-.03.14-.14.14-.35,0-.71,0-1.06,0Z"/>
      <path class="cls-2" d="M22.56,5.73c0-.05,0-.1,0-.14,0-.15.13-.27.28-.27.4,0,.8,0,1.2,0,.15,0,.27.13.28.28,0,.04,0,.09,0,.13h-1.76Z"/>
      <path class="cls-2" d="M22.87,3.51c.06,0,.11.02.15.06.3.3.6.59.89.89.09.09.08.22,0,.3-.08.08-.21.09-.3,0-.3-.3-.6-.59-.89-.89-.07-.07-.08-.15-.04-.24.04-.08.1-.13.2-.13Z"/>
      <path class="cls-2" d="M24.22,2.16c.06,0,.11.02.15.06.3.3.59.59.89.89.09.09.09.22,0,.3-.08.08-.22.09-.3,0-.3-.3-.6-.59-.89-.89-.07-.07-.08-.15-.04-.24.04-.08.11-.13.2-.13Z"/>
    </g>
  </g>
  <g>
    <circle class="cls-3" cx="34.3" cy="4.3" r="4.3"/>
    <g>
      <path class="cls-2" d="M33.95,4.37c-.28-.28-.56-.56-.84-.84.3-.3.61-.61.91-.91.28.28.56.56.84.84-.3.3-.6.6-.91.91Z"/>
      <path class="cls-2" d="M34.64,3.84c.08.07.17.15.26.23.44.39.88.78,1.32,1.17.14.12.16.31.07.46-.13.19-.4.21-.56.04-.15-.16-.29-.32-.43-.49-.32-.36-.64-.72-.95-1.08-.01-.01-.02-.02-.03-.03.1-.1.21-.2.32-.31Z"/>
      <path class="cls-2" d="M33.44,6.44c-.35,0-.71,0-1.06,0-.11,0-.13-.03-.13-.14,0-.07,0-.14,0-.2,0-.15.13-.28.28-.28.61,0,1.21,0,1.82,0,.16,0,.28.12.29.28,0,.06,0,.13,0,.19,0,.11-.03.14-.14.14-.35,0-.71,0-1.06,0Z"/>
      <path class="cls-2" d="M32.56,5.73c0-.05,0-.1,0-.14,0-.15.13-.27.28-.27.4,0,.8,0,1.2,0,.15,0,.27.13.28.28,0,.04,0,.09,0,.13h-1.76Z"/>
      <path class="cls-2" d="M32.87,3.51c.06,0,.11.02.15.06.3.3.6.59.89.89.09.09.08.22,0,.3-.08.08-.21.09-.3,0-.3-.3-.6-.59-.89-.89-.07-.07-.08-.15-.04-.24.04-.08.1-.13.2-.13Z"/>
      <path class="cls-2" d="M34.22,2.16c.06,0,.11.02.15.06.3.3.59.59.89.89.09.09.09.22,0,.3-.08.08-.22.09-.3,0-.3-.3-.6-.59-.89-.89-.07-.07-.08-.15-.04-.24.04-.08.11-.13.2-.13Z"/>
    </g>
  </g>
  <g class="cls-1">
    <circle class="cls-3" cx="44.3" cy="4.3" r="4.3"/>
    <g>
      <path class="cls-2" d="M43.95,4.37c-.28-.28-.56-.56-.84-.84.3-.3.61-.61.91-.91.28.28.56.56.84.84-.3.3-.6.6-.91.91Z"/>
      <path class="cls-2" d="M44.64,3.84c.08.07.17.15.26.23.44.39.88.78,1.32,1.17.14.12.16.31.07.46-.13.19-.4.21-.56.04-.15-.16-.29-.32-.43-.49-.32-.36-.64-.72-.95-1.08-.01-.01-.02-.02-.03-.03.1-.1.21-.2.32-.31Z"/>
      <path class="cls-2" d="M43.44,6.44c-.35,0-.71,0-1.06,0-.11,0-.13-.03-.13-.14,0-.07,0-.14,0-.2,0-.15.13-.28.28-.28.61,0,1.21,0,1.82,0,.16,0,.28.12.29.28,0,.06,0,.13,0,.19,0,.11-.03.14-.14.14-.35,0-.71,0-1.06,0Z"/>
      <path class="cls-2" d="M42.56,5.73c0-.05,0-.1,0-.14,0-.15.13-.27.28-.27.4,0,.8,0,1.2,0,.15,0,.27.13.28.28,0,.04,0,.09,0,.13h-1.76Z"/>
      <path class="cls-2" d="M42.87,3.51c.06,0,.11.02.15.06.3.3.6.59.89.89.09.09.08.22,0,.3-.08.08-.21.09-.3,0-.3-.3-.6-.59-.89-.89-.07-.07-.08-.15-.04-.24.04-.08.1-.13.2-.13Z"/>
      <path class="cls-2" d="M44.22,2.16c.06,0,.11.02.15.06.3.3.59.59.89.89.09.09.09.22,0,.3-.08.08-.22.09-.3,0-.3-.3-.6-.59-.89-.89-.07-.07-.08-.15-.04-.24.04-.08.11-.13.2-.13Z"/>
    </g>
  </g>
</svg>