<svg width="11.383301" height="11.550049" viewBox="0 0 11.3833 11.55" fill="none" xmlns="http://www.w3.org/2000/svg" xmlns:xlink="http://www.w3.org/1999/xlink">
	<desc>
			Created with Pixso.
	</desc>
	<defs/>
	<path id="Icon (Stroke)" d="M4.77 0.31C4.85 0.12 5.04 0 5.25 0C5.8 0 6.34 0.22 6.73 0.61C7.12 1 7.35 1.54 7.35 2.1L7.35 3.67L9.79 3.67C10.02 3.67 10.24 3.71 10.45 3.81C10.66 3.9 10.84 4.04 10.99 4.21C11.14 4.38 11.25 4.59 11.32 4.81C11.38 5.03 11.39 5.26 11.36 5.48L10.64 10.21C10.64 10.21 10.64 10.21 10.64 10.21C10.58 10.58 10.39 10.92 10.1 11.17C9.81 11.42 9.44 11.55 9.06 11.55L1.57 11.55C1.15 11.55 0.75 11.38 0.46 11.08C0.16 10.79 0 10.39 0 9.97L0 6.3C0 5.88 0.16 5.48 0.46 5.18C0.75 4.89 1.15 4.72 1.57 4.72L2.8 4.72L4.77 0.31ZM2.62 5.77L1.57 5.77C1.43 5.77 1.3 5.83 1.2 5.92C1.1 6.02 1.05 6.16 1.05 6.3L1.05 9.97C1.05 10.11 1.1 10.24 1.2 10.34C1.3 10.44 1.43 10.5 1.57 10.5L2.62 10.5L2.62 5.77ZM3.67 10.5L9.07 10.5L9.07 10.5C9.2 10.5 9.32 10.45 9.42 10.37C9.52 10.29 9.58 10.17 9.6 10.05L10.32 5.32C10.33 5.25 10.33 5.17 10.31 5.1C10.29 5.03 10.25 4.96 10.2 4.9C10.15 4.84 10.09 4.8 10.02 4.77C9.95 4.73 9.87 4.72 9.8 4.72L9.79 4.72L6.82 4.72C6.53 4.72 6.3 4.48 6.3 4.19L6.3 2.1C6.3 1.82 6.18 1.55 5.99 1.35C5.87 1.23 5.72 1.15 5.56 1.09L3.67 5.36L3.67 10.5Z" fill="#FFFFFF" fill-opacity="1.000000" fill-rule="evenodd"/>
</svg>
