<svg width="27" height="30" viewBox="0 0 27 30" fill="none" xmlns="http://www.w3.org/2000/svg">
<path d="M20.5525 25.3008C22.0684 25.3008 23.5844 25.3008 25.1003 25.3008C25.1783 25.3008 25.2564 25.3008 25.3344 25.3008C25.6443 25.3142 25.8315 25.4836 25.836 25.7578C25.8404 26.0187 25.6733 26.1926 25.3767 26.2327C25.1939 26.2572 24.9487 26.1524 24.8417 26.2862C24.7302 26.4289 24.9264 26.6228 24.9599 26.8012C25.165 27.8891 24.4895 28.8811 23.386 29.0951C22.3939 29.2869 21.3974 28.5601 21.1901 27.5212C21.1165 27.1556 21.1767 26.8212 21.3105 26.4935C21.3952 26.2884 21.3372 26.2327 21.1343 26.2349C20.655 26.2416 20.1757 26.2416 19.6964 26.2349C19.4824 26.2327 19.4088 26.2817 19.5069 26.5047C20.0442 27.7196 19.041 29.1732 17.6499 29.1174C16.4438 29.0684 15.5722 27.8935 15.8798 26.6785C15.9348 26.463 15.8479 26.3553 15.619 26.3553C11.0801 26.3553 6.54116 26.3397 2.00448 26.3664C1.03918 26.3754 0.25 25.6441 0.25 24.5986C0.256688 17.7122 0.256688 10.828 0.25 3.94163C0.25 2.88939 1.02581 2.14033 2.00894 2.16931C3.1615 2.20498 4.31629 2.17377 5.47108 2.18046C5.69179 2.18046 5.83669 2.16709 5.83892 1.8795C5.83892 1.62536 6.06854 1.48045 6.39626 1.47822C7.00263 1.47376 7.60901 1.47376 8.21539 1.47822C8.37813 1.47822 8.48291 1.43364 8.56762 1.28204C9.51286 -0.389954 11.7845 -0.43677 12.7744 1.20179C12.9081 1.42472 13.0486 1.48714 13.2871 1.48045C13.8534 1.46708 14.4218 1.47376 14.9881 1.47822C15.3024 1.48045 15.5254 1.63651 15.5521 1.91963C15.5722 2.15148 15.6769 2.18269 15.8709 2.18046C17.0747 2.17377 18.2763 2.19161 19.4802 2.17154C20.3296 2.15817 21.1031 2.91614 21.0987 3.78558C21.0741 7.55983 21.0875 11.3363 21.0875 15.1128C21.0875 15.4516 21.254 15.6211 21.5869 15.6211C22.7907 15.6211 23.9923 15.6144 25.1962 15.6233C25.8315 15.6278 26.3956 15.815 26.7567 16.3835C26.9618 16.7045 27.0554 17.0523 26.9663 17.4447C26.5628 19.2348 26.1748 21.0294 25.7669 22.8173C25.6064 23.524 25.1181 23.8919 24.3936 23.8919C23.1519 23.8919 21.9101 23.8919 20.6662 23.8919C20.1178 23.8919 19.5694 23.8963 19.0209 23.8963C18.6888 23.9008 18.3588 23.9053 18.0267 23.9097C17.3177 23.9053 16.6088 23.8963 15.8999 23.903C15.6234 23.9053 15.3916 24.0167 15.2779 24.2954C15.0728 24.8171 15.3582 25.2785 15.9199 25.2919C16.6222 25.3053 17.3244 25.2919 18.0244 25.2874C18.8649 25.2919 19.7076 25.2964 20.548 25.3008H20.5525ZM19.0945 16.6109C18.8136 16.5619 18.5327 16.602 18.2496 16.5886C18.1292 16.5819 18.0757 16.6243 18.0757 16.7536C18.0802 17.1326 18.0802 17.5138 18.0757 17.8928C18.0757 17.9975 18.1069 18.06 18.2228 18.0555C18.5127 18.0421 18.8047 18.0889 19.0923 18.0265C19.1502 18.0288 19.2082 18.0332 19.2662 18.0354C19.6942 18.0399 19.9082 17.8251 19.9082 17.3912C19.9082 16.8472 19.6355 16.5871 19.09 16.6109H19.0945ZM19.0945 19.0186C18.8136 18.9695 18.5305 19.0097 18.2496 18.9963C18.127 18.9896 18.0757 19.0364 18.0779 19.1635C18.0824 19.5536 18.0824 19.9437 18.0779 20.3339C18.0779 20.4565 18.1136 20.51 18.2451 20.5055C18.5283 20.4944 18.8092 20.4944 19.0923 20.4899C19.1213 20.4899 19.1502 20.4944 19.1792 20.4966C19.6697 20.5055 19.9149 20.264 19.9149 19.7721C19.9149 19.2475 19.6422 18.997 19.0967 19.0208L19.0945 19.0186ZM19.0722 21.4441C18.8203 21.4441 18.5684 21.4508 18.3165 21.4396C18.1493 21.4329 18.069 21.4686 18.0757 21.6603C18.0891 22.0282 18.0868 22.3982 18.0757 22.7661C18.0712 22.9177 18.1181 22.9712 18.2719 22.9645C18.5439 22.9511 18.8136 22.9556 19.0856 22.9511C19.2706 22.9511 19.4557 22.9444 19.6407 22.96C19.8681 22.9801 19.926 22.8798 19.9171 22.6702C19.9038 22.3492 19.9015 22.0282 19.9171 21.7071C19.9283 21.4798 19.8369 21.4151 19.6273 21.4307C19.4445 21.4463 19.2572 21.4396 19.0722 21.4419V21.4441ZM18.0311 3.12347C17.2798 3.12124 16.5308 3.12347 15.7795 3.11232C15.5164 3.10786 15.5633 3.27729 15.5699 3.42443C15.5766 3.57156 15.4897 3.76997 15.7795 3.76551C16.5308 3.75214 17.2798 3.7566 18.0311 3.75437C18.2942 3.7566 18.5595 3.76105 18.8225 3.76328C19.391 3.76328 19.5069 3.87921 19.5069 4.44992C19.5069 8.06812 19.5092 11.6863 19.5025 15.3045C19.5025 15.5609 19.576 15.6456 19.8346 15.6389C20.0643 15.6322 20.1624 15.5832 20.1624 15.3268C20.1557 11.5035 20.1579 7.68021 20.1557 3.85469C20.1557 3.37092 19.8971 3.11901 19.4088 3.11678C18.9496 3.11455 18.4904 3.12124 18.0311 3.12347ZM18.0311 4.70852C17.2687 4.70629 16.5063 4.70183 15.7438 4.6996C15.6658 4.6996 15.5811 4.66616 15.561 4.8133C15.4852 5.3149 15.3849 5.39292 14.8766 5.39292C12.09 5.39292 9.3033 5.39292 6.51441 5.39292C6.4453 5.39292 6.37619 5.39738 6.30931 5.39292C6.01058 5.3684 5.83001 5.21012 5.83001 4.91139C5.83001 4.70852 5.74752 4.69737 5.58924 4.69737C4.7577 4.70406 3.92616 4.71075 3.09462 4.69291C2.83825 4.68623 2.79812 4.77094 2.79812 5.00279C2.80481 11.1825 2.80481 17.3644 2.79812 23.5441C2.79812 23.796 2.87169 23.8428 3.108 23.8428C6.77524 23.8362 10.4425 23.8362 14.1097 23.8428C14.3327 23.8428 14.4887 23.8094 14.6113 23.5976C14.7228 23.4037 14.9101 23.2588 15.1196 23.1674C15.2779 23.0982 15.3225 23.0202 15.2824 22.8374C14.5935 19.7921 13.9113 16.7447 13.2358 13.6949C13.2002 13.53 13.1333 13.4943 12.9839 13.4965C12.6027 13.5054 12.2215 13.5032 11.8403 13.4965C11.5036 13.4921 11.2874 13.2981 11.2941 13.015C11.3008 12.7408 11.5059 12.5624 11.8314 12.5602C12.3686 12.5558 12.9081 12.558 13.4454 12.5602C13.8377 12.5602 13.9671 12.665 14.0518 13.0484C14.2301 13.8398 14.404 14.629 14.5823 15.4204C14.6069 15.5274 14.6002 15.6545 14.7785 15.6545C15.8642 15.6434 16.9477 15.6389 18.0333 15.6345C18.399 15.6731 18.5818 15.5148 18.5818 15.1596C18.5818 11.8468 18.5818 8.53627 18.5818 5.22349C18.5818 4.86383 18.4004 4.69366 18.0378 4.71298L18.0311 4.70852ZM1.20192 14.2634C1.20192 17.6765 1.20192 21.0919 1.20192 24.5049C1.20192 25.2027 1.4204 25.4234 2.10926 25.4234C6.09976 25.4234 10.0903 25.4234 14.083 25.4234C14.161 25.4234 14.239 25.4234 14.3171 25.4234C14.3616 25.4234 14.4397 25.4234 14.4263 25.3632C14.3817 25.1849 14.3349 25.0021 14.2524 24.8371C14.1989 24.7279 14.0562 24.7814 13.9559 24.7814C10.1415 24.7792 6.32715 24.7814 2.51054 24.7792C2.0134 24.7792 1.87741 24.6454 1.87741 24.1572C1.87741 17.5651 1.87741 10.9707 1.87741 4.37858C1.87741 3.91042 2.02232 3.76551 2.49047 3.76551C3.51819 3.76551 4.54368 3.7566 5.5714 3.76997C5.82555 3.77443 5.83669 3.64736 5.82332 3.46232C5.81217 3.29958 5.88797 3.10786 5.58701 3.11232C4.36534 3.1257 3.14144 3.11455 1.91977 3.11901C1.52963 3.11901 1.27772 3.3464 1.21753 3.73207C1.19969 3.848 1.20192 3.96615 1.20192 4.08208C1.20192 7.47734 1.20192 10.8704 1.20192 14.2656V14.2634ZM10.6721 4.44992C10.6721 4.44992 10.6721 4.44769 10.6721 4.44546C11.8938 4.44546 13.1154 4.441 14.3393 4.44992C14.5489 4.44992 14.6336 4.40979 14.6247 4.17794C14.6069 3.6808 14.6113 3.18143 14.6247 2.68206C14.6292 2.47919 14.5734 2.41008 14.3639 2.41454C13.7976 2.42792 13.2291 2.41454 12.6629 2.42123C12.3642 2.42569 12.1947 2.29193 12.1033 2.01103C11.8849 1.33778 11.3498 0.943184 10.6899 0.943184C10.0278 0.943184 9.50617 1.33109 9.27655 2.01103C9.18292 2.2897 9.01572 2.42569 8.71476 2.42123C8.14851 2.41231 7.58003 2.42792 7.01378 2.41454C6.80422 2.41008 6.74849 2.47919 6.75295 2.67983C6.76632 3.1792 6.76855 3.67634 6.75295 4.17571C6.74626 4.39864 6.8176 4.45438 7.03384 4.45215C8.2466 4.44323 9.45935 4.44769 10.6721 4.44769V4.44992ZM15.9957 16.5886C15.6747 16.5886 15.3515 16.5931 15.0304 16.5864C14.8833 16.5819 14.8409 16.631 14.8744 16.7736C14.9636 17.1437 15.046 17.5138 15.1263 17.8838C15.1531 18.0065 15.1999 18.0622 15.3381 18.06C15.8754 18.051 16.4104 18.0533 16.9477 18.06C17.1015 18.06 17.1505 18.0065 17.1461 17.8549C17.1372 17.5049 17.1349 17.1526 17.1461 16.8026C17.1505 16.6377 17.0993 16.5797 16.9321 16.5841C16.62 16.5953 16.3078 16.5864 15.9957 16.5864V16.5886ZM24.7548 18.0288H25.2831C25.9252 18.0288 25.9965 17.9574 26.021 17.3064C26.021 17.2775 26.021 17.2485 26.021 17.2195C26.021 16.8539 25.8182 16.6243 25.4592 16.6154C24.942 16.6042 24.4248 16.6154 23.9054 16.6109C23.7293 16.6109 23.6579 16.6756 23.6624 16.8517C23.6691 17.1638 23.6691 17.4759 23.6624 17.7902C23.6579 17.9663 23.7293 18.0377 23.9054 18.0332C24.1885 18.0265 24.4716 18.0332 24.7548 18.0332V18.0288ZM17.7368 26.2371C17.1951 26.2371 16.7693 26.654 16.7559 27.1957C16.7448 27.713 17.1929 28.17 17.7212 28.1767C18.2607 28.1833 18.6821 27.762 18.6843 27.2091C18.6865 26.6496 18.2853 26.2349 17.7368 26.2349V26.2371ZM23.0917 26.2371C22.5388 26.2371 22.1063 26.6696 22.1108 27.2225C22.1152 27.7352 22.55 28.17 23.0672 28.1789C23.6044 28.1878 24.028 27.7665 24.0347 27.2158C24.0414 26.654 23.6401 26.2394 23.0917 26.2371ZM21.7831 22.9556C21.9993 22.9556 22.2133 22.9489 22.4296 22.9556C22.599 22.9623 22.6815 22.9021 22.677 22.7215C22.6681 22.3693 22.6726 22.017 22.677 21.6648C22.677 21.511 22.6324 21.4262 22.4608 21.4285C21.9904 21.4329 21.5222 21.4329 21.0519 21.4285C20.8958 21.4285 20.849 21.5065 20.8512 21.647C20.8557 22.0081 20.8557 22.3715 20.8512 22.7326C20.849 22.8976 20.9203 22.96 21.0808 22.9556C21.3149 22.9489 21.5512 22.9556 21.7853 22.9556H21.7831ZM21.7831 19.0186C21.549 19.0186 21.3149 19.023 21.0808 19.0186C20.9226 19.0141 20.849 19.0743 20.8512 19.2393C20.8579 19.5804 20.8557 19.9215 20.8512 20.2625C20.849 20.4208 20.9047 20.4966 21.0697 20.4944C21.5289 20.4899 21.9859 20.4899 22.4452 20.4944C22.6035 20.4944 22.6793 20.4387 22.677 20.2737C22.6726 19.9326 22.6703 19.5915 22.677 19.2504C22.6815 19.0676 22.5945 19.0119 22.4273 19.0186C22.2133 19.0253 21.9993 19.0186 21.7831 19.0186ZM24.5118 20.4899C24.7169 20.4899 24.922 20.4899 25.1271 20.4899C25.2631 20.4899 25.3411 20.4409 25.3701 20.296C25.4347 19.9705 25.5127 19.6472 25.5885 19.3262C25.6443 19.0944 25.5618 19.003 25.321 19.0141C24.9799 19.0275 24.6366 19.0141 24.2955 19.0186C23.5598 19.0275 23.6691 18.9183 23.6646 19.6584C23.6579 20.4922 23.6646 20.4944 24.5118 20.4922V20.4899ZM21.7652 18.0288C21.9904 18.0288 22.2133 18.0221 22.4385 18.0288C22.6168 18.0354 22.6815 17.9574 22.677 17.7835C22.6703 17.4714 22.6703 17.1593 22.677 16.8472C22.6815 16.6711 22.6079 16.6042 22.434 16.6064C21.9859 16.6131 21.5356 16.6109 21.0875 16.6064C20.9359 16.6064 20.8468 16.6488 20.8512 16.8205C20.8579 17.1526 20.8557 17.4848 20.8512 17.8147C20.8512 17.9641 20.9159 18.0265 21.063 18.0243C21.2971 18.0198 21.5312 18.0243 21.7652 18.0243V18.0288ZM16.3034 18.9963C16.018 18.9963 15.784 19.0007 15.5499 18.9963C15.4206 18.9918 15.3738 19.032 15.4094 19.1657C15.4607 19.353 15.4941 19.5447 15.5432 19.7342C15.6101 19.9861 15.5655 20.3383 15.755 20.4632C15.9422 20.5858 16.2633 20.5055 16.5241 20.5055C17.1394 20.5078 17.1394 20.5055 17.1372 19.8769C17.1372 19.596 17.2308 19.2192 17.0903 19.0587C16.9231 18.8692 16.5375 19.0275 16.3012 18.9985L16.3034 18.9963ZM23.6646 22.1864C23.6646 22.3715 23.6669 22.5587 23.6646 22.7438C23.6624 22.8887 23.7226 22.9578 23.872 22.9578C24.7748 22.9578 24.7681 23.0381 24.9487 22.1954C24.9532 22.1753 24.9554 22.1575 24.9599 22.1374C25.1449 21.2947 25.1761 21.4419 24.4137 21.4329C23.6646 21.4262 23.6646 21.4329 23.6646 22.1864ZM17.1416 22.1909C17.1416 22.0059 17.1372 21.8186 17.1416 21.6336C17.1461 21.502 17.1126 21.4352 16.9655 21.4374C16.6735 21.4463 16.3792 21.4419 16.0871 21.4374C15.9824 21.4374 15.9222 21.4485 15.9556 21.5845C16.0537 21.9925 16.1362 22.4027 16.2276 22.8129C16.2454 22.8909 16.2722 22.9444 16.3747 22.9623C17.0368 23.0737 17.1416 22.9912 17.1416 22.3358C17.1416 22.2868 17.1416 22.2377 17.1416 22.1887V22.1909Z" fill="#252323"/>
<path d="M20.5524 25.3008C19.712 25.2963 18.8693 25.2919 18.0288 25.2874C18.031 24.9619 18.0355 24.6364 18.0377 24.3087L18.031 24.2954C18.2228 24.2976 18.4145 24.3176 18.604 24.2976C18.8358 24.2753 19.0275 24.1817 19.0253 23.8963C19.5737 23.8963 20.1221 23.8918 20.6706 23.8918C20.646 24.3622 20.7709 24.846 20.5546 25.2986L20.5524 25.3008Z" fill="#665C66"/>
<path d="M18.0267 15.6323C16.941 15.639 15.8576 15.6413 14.7719 15.6524C14.5936 15.6524 14.6003 15.5253 14.5757 15.4183C14.3974 14.6291 14.2213 13.8377 14.0451 13.0463C13.9604 12.6651 13.8311 12.5603 13.4388 12.5581C12.9015 12.5581 12.362 12.5536 11.8247 12.5581C11.4993 12.5603 11.2942 12.7409 11.2875 13.0129C11.2808 13.2938 11.497 13.49 11.8337 13.4944C12.2149 13.4989 12.5961 13.5011 12.9773 13.4944C13.1267 13.4922 13.1935 13.5279 13.2292 13.6928C13.9047 16.7425 14.5869 19.79 15.2757 22.8353C15.3159 23.0159 15.2735 23.0961 15.113 23.1652C14.9034 23.2566 14.7162 23.4015 14.6047 23.5955C14.4821 23.8073 14.326 23.843 14.1031 23.8407C10.4359 23.834 6.76862 23.834 3.10138 23.8407C2.86507 23.8407 2.7915 23.7939 2.7915 23.542C2.80042 17.3623 2.79819 11.1804 2.7915 5.00068C2.7915 4.7666 2.83163 4.68411 3.088 4.6908C3.91954 4.70864 4.75108 4.70195 5.58262 4.69526C5.7409 4.69526 5.82562 4.70641 5.82339 4.90928C5.82339 5.20801 6.00174 5.36629 6.30269 5.39081C6.3718 5.39527 6.43868 5.39081 6.50779 5.39081C9.29445 5.39081 12.0811 5.39081 14.87 5.39081C15.3783 5.39081 15.4786 5.31279 15.5544 4.81119C15.5767 4.66405 15.6592 4.69749 15.7372 4.69749C16.4996 4.69749 17.2621 4.70195 18.0245 4.70641C18.0245 5.9749 18.0267 7.24338 18.0267 8.5141C18.0267 10.8861 18.0223 13.2581 18.02 15.6301L18.0267 15.6323ZM6.63932 17.9464C6.31607 17.9464 5.99505 17.9397 5.6718 17.9464C5.02975 17.9642 4.57942 18.39 4.55936 19.0298C4.5393 19.683 4.53707 20.3407 4.55936 20.9939C4.58165 21.6292 5.04758 22.0617 5.68294 22.0706C6.3183 22.0796 6.95366 22.0796 7.58902 22.0706C8.2266 22.0595 8.68585 21.5913 8.69922 20.9493C8.70591 20.626 8.70814 20.305 8.69922 19.9818C8.69476 19.8413 8.74158 19.7477 8.84413 19.654C9.17407 19.3642 9.50178 19.07 9.81834 18.7645C10.0168 18.5706 10.0145 18.2919 9.83841 18.1069C9.66452 17.9263 9.41707 17.9063 9.20528 18.0712C9.04477 18.1983 8.89094 18.3365 8.74604 18.4814C8.63903 18.5884 8.59221 18.5684 8.51419 18.448C8.29125 18.1002 7.96132 17.9419 7.54889 17.9442C7.2457 17.9442 6.94251 17.9442 6.63932 17.9442V17.9464ZM8.60782 13.2068C8.33584 12.7075 7.92788 12.5313 7.40175 12.5492C6.82659 12.567 6.24919 12.5492 5.6718 12.5559C5.04535 12.567 4.58611 12.9817 4.56159 13.6103C4.53484 14.2836 4.53261 14.9591 4.56159 15.6323C4.59057 16.2543 5.0565 16.669 5.68294 16.6757C6.30938 16.6824 6.93359 16.6824 7.56004 16.6757C8.21992 16.669 8.68362 16.2097 8.69699 15.5521C8.70368 15.269 8.71483 14.9836 8.69253 14.7027C8.6747 14.4731 8.75941 14.3237 8.93107 14.181C9.2298 13.9291 9.51739 13.6638 9.80051 13.3941C10.0056 13.1979 10.0168 12.9282 9.85178 12.7364C9.67344 12.5291 9.40592 12.5113 9.17407 12.703C8.9868 12.8591 8.81069 13.0285 8.61005 13.2068H8.60782ZM8.60782 7.81855C8.3403 7.32141 7.93456 7.14083 7.40621 7.15867C6.83996 7.17873 6.27148 7.15867 5.70524 7.16313C5.05204 7.16759 4.58165 7.59339 4.55936 8.24212C4.53707 8.89531 4.53707 9.55297 4.55936 10.2062C4.58165 10.846 5.0409 11.2718 5.68071 11.2807C6.31607 11.2874 6.95143 11.2896 7.58679 11.2807C8.23106 11.2718 8.68362 10.8125 8.69922 10.1638C8.70591 9.84055 8.70814 9.5173 8.69922 9.19627C8.69476 9.05583 8.73935 8.95996 8.84413 8.86856C9.16069 8.59213 9.4728 8.31123 9.78045 8.02365C10.0123 7.8074 10.0301 7.52205 9.84064 7.32364C9.65114 7.12523 9.397 7.123 9.16069 7.32364C8.98235 7.47523 8.81069 7.63574 8.61228 7.81409L8.60782 7.81855ZM13.6907 9.89628C13.2225 9.89628 12.7544 9.89628 12.284 9.89628C11.8537 9.89628 11.4257 9.88959 10.9954 9.90074C10.7078 9.90743 10.525 10.0925 10.5184 10.3511C10.5117 10.6097 10.6833 10.7947 10.9709 10.8281C11.0489 10.8371 11.127 10.8371 11.205 10.8371C12.8458 10.8371 14.4866 10.8371 16.1251 10.8371C16.2321 10.8371 16.3414 10.8371 16.4461 10.8148C16.7315 10.7568 16.892 10.4915 16.7984 10.2173C16.7137 9.96539 16.5152 9.89405 16.2678 9.89628C15.4095 9.89851 14.549 9.89628 13.6907 9.89628ZM13.6929 7.62014C12.8235 7.62014 11.954 7.62237 11.0846 7.62014C10.8528 7.62014 10.6588 7.67364 10.5563 7.90326C10.4069 8.24212 10.6543 8.55869 11.0846 8.56092C12.8034 8.56537 14.5222 8.56314 16.241 8.56092C16.6133 8.56092 16.8184 8.3848 16.8207 8.08607C16.8207 7.78734 16.62 7.62237 16.241 7.62014C15.3917 7.62014 14.5423 7.62014 13.6929 7.62014ZM12.3553 21.6114C12.8146 21.6114 13.2738 21.6159 13.7353 21.6114C14.0429 21.6069 14.2302 21.4286 14.2346 21.1544C14.2391 20.8802 14.0541 20.6795 13.7509 20.6773C12.8413 20.6684 11.9317 20.6684 11.0222 20.6773C10.7056 20.6795 10.5094 20.8891 10.5206 21.17C10.5317 21.4375 10.7257 21.6092 11.0356 21.6114C11.4747 21.6159 11.9161 21.6114 12.3553 21.6114ZM12.1101 19.3353C12.4802 19.3353 12.8525 19.3419 13.2225 19.3353C13.5279 19.3286 13.7241 19.1435 13.733 18.8827C13.742 18.6152 13.5324 18.4034 13.2181 18.4012C12.4868 18.3923 11.7556 18.3923 11.0222 18.4012C10.7034 18.4056 10.5094 18.6063 10.5184 18.8872C10.5273 19.1547 10.7145 19.3286 11.0266 19.3375C11.3878 19.3464 11.7489 19.3375 12.1101 19.3375V19.3353ZM11.8849 16.2187C12.1881 16.2187 12.4913 16.2253 12.7945 16.2164C13.0776 16.2075 13.2671 16.0158 13.2716 15.7616C13.276 15.5276 13.0955 15.3002 12.8369 15.2935C12.2126 15.2756 11.5862 15.2734 10.962 15.2913C10.6811 15.2979 10.5094 15.5186 10.5206 15.7772C10.5317 16.0336 10.7168 16.2097 11.0066 16.2164C11.2986 16.2253 11.5929 16.2164 11.8849 16.2164V16.2187ZM15.6592 13.0107C15.4362 13.0107 15.2111 12.9995 14.9882 13.0129C14.7229 13.0285 14.5445 13.2158 14.5356 13.4587C14.5267 13.7017 14.6939 13.918 14.9569 13.9314C15.4318 13.9514 15.9111 13.9537 16.3859 13.9336C16.6691 13.9224 16.8318 13.7107 16.8162 13.4454C16.8028 13.1957 16.6334 13.0263 16.357 13.0107C16.1229 12.9973 15.8888 13.0084 15.657 13.0084L15.6592 13.0107Z" fill="#EAEDEF"/>
<path d="M1.20175 14.2635C1.20175 10.8682 1.20175 7.47515 1.20175 4.07988C1.20175 3.96173 1.19952 3.84358 1.21735 3.72988C1.27755 3.34421 1.52946 3.11904 1.91959 3.11681C3.14126 3.11236 4.36517 3.12127 5.58684 3.11013C5.89003 3.1079 5.812 3.29739 5.82314 3.46013C5.83652 3.64294 5.82314 3.77001 5.57123 3.76778C4.54351 3.7544 3.51802 3.76109 2.4903 3.76332C2.02214 3.76332 1.87724 3.90823 1.87724 4.37638C1.87724 10.9685 1.87724 17.5629 1.87724 24.155C1.87724 24.6432 2.01322 24.777 2.51036 24.777C6.32474 24.777 10.1391 24.777 13.9557 24.7792C14.0583 24.7792 14.1987 24.7257 14.2522 24.8349C14.3325 24.9999 14.3793 25.1827 14.4261 25.361C14.4417 25.4212 14.3637 25.419 14.3169 25.4212C14.2389 25.4257 14.1608 25.4212 14.0828 25.4212C10.0923 25.4212 6.10181 25.4212 2.10909 25.4212C1.42022 25.4212 1.20175 25.2005 1.20175 24.5028C1.20175 21.0897 1.20175 17.6743 1.20175 14.2612V14.2635Z" fill="#7E727E"/>
<path d="M10.672 4.44982C9.45927 4.44982 8.24652 4.44536 7.03376 4.45427C6.81752 4.45427 6.74618 4.40077 6.75287 4.17784C6.7707 3.6807 6.76624 3.18133 6.75287 2.68196C6.74841 2.48132 6.80414 2.40998 7.0137 2.41667C7.57995 2.43004 8.14843 2.41667 8.71467 2.42336C9.01563 2.42782 9.18283 2.2896 9.27647 2.01316C9.50386 1.33322 10.0255 0.945312 10.6899 0.945312C11.3497 0.945312 11.8848 1.3399 12.1033 2.01316C12.1947 2.29629 12.3641 2.42782 12.6628 2.42336C13.2291 2.41667 13.7975 2.43004 14.3638 2.41667C14.5733 2.41221 14.6313 2.48132 14.6246 2.68419C14.6112 3.18356 14.6068 3.68293 14.6246 4.18007C14.6335 4.41192 14.5488 4.45427 14.3393 4.45204C13.1176 4.44313 11.8959 4.44759 10.672 4.44759C10.672 4.44759 10.672 4.44982 10.672 4.45204V4.44982ZM11.2271 2.19151C11.2316 1.91061 11.0176 1.69214 10.7344 1.68545C10.4491 1.68099 10.2284 1.89055 10.2239 2.17367C10.2195 2.45011 10.4424 2.68196 10.7166 2.68642C10.9886 2.69088 11.2227 2.46571 11.2271 2.19151Z" fill="#DFA46D"/>
<path d="M18.031 3.12335C18.4902 3.12112 18.9495 3.11443 19.4087 3.11666C19.897 3.11889 20.1533 3.37303 20.1556 3.85457C20.1556 7.67786 20.1556 11.5012 20.1622 15.3267C20.1622 15.5808 20.0664 15.6321 19.8345 15.6388C19.5759 15.6455 19.5024 15.5608 19.5024 15.3044C19.509 11.6862 19.5068 8.068 19.5068 4.4498C19.5068 3.87909 19.3909 3.76539 18.8224 3.76316C18.5594 3.76316 18.2941 3.75871 18.031 3.75425C18.031 3.54469 18.031 3.33513 18.031 3.12558V3.12335Z" fill="#665C66"/>
<path d="M18.0269 15.6322C18.0291 13.2602 18.0313 10.8882 18.0335 8.51624C18.0335 7.24775 18.0335 5.97926 18.0313 4.70854C18.394 4.69071 18.5753 4.86088 18.5753 5.21906C18.5753 8.53184 18.5753 11.8424 18.5753 15.1552C18.5753 15.5089 18.3925 15.6672 18.0269 15.63V15.6322Z" fill="#CECED3"/>
<path d="M15.9956 16.5887C16.3078 16.5887 16.6199 16.5954 16.932 16.5864C17.0992 16.5797 17.1504 16.6399 17.146 16.8049C17.1348 17.1549 17.1371 17.5071 17.146 17.8572C17.1504 18.0087 17.1014 18.0645 16.9476 18.0622C16.4103 18.0556 15.8753 18.0556 15.338 18.0622C15.1998 18.0622 15.153 18.0065 15.1262 17.8861C15.0482 17.5138 14.9635 17.1438 14.8743 16.7759C14.8409 16.6333 14.8832 16.5842 15.0304 16.5887C15.3514 16.5976 15.6746 16.5909 15.9956 16.5909V16.5887Z" fill="#E6E8EA"/>
<path d="M17.737 26.2371C18.2854 26.2371 18.6889 26.6517 18.6844 27.2113C18.6822 27.7619 18.2609 28.1855 17.7214 28.1788C17.193 28.1721 16.7449 27.7151 16.7561 27.1979C16.7672 26.6562 17.1952 26.2393 17.737 26.2393V26.2371Z" fill="#A498A4"/>
<path d="M23.0918 26.2371C23.6402 26.2371 24.0415 26.6539 24.0348 27.2157C24.0281 27.7664 23.6045 28.1877 23.0673 28.1788C22.5478 28.1699 22.1131 27.7352 22.1109 27.2224C22.1064 26.6696 22.5389 26.2371 23.0918 26.2371Z" fill="#A498A4"/>
<path d="M18.0377 24.311C18.0355 24.6365 18.031 24.9619 18.0288 25.2897C17.3265 25.2919 16.6243 25.3075 15.9243 25.2941C15.3625 25.283 15.0772 24.8193 15.2823 24.2976L18.0377 24.311Z" fill="#827582"/>
<path d="M16.3035 18.9962C16.542 19.0252 16.9254 18.8669 17.0926 19.0564C17.2353 19.2192 17.1394 19.5937 17.1394 19.8746C17.1417 20.5033 17.1394 20.5055 16.5264 20.5033C16.2633 20.5033 15.9445 20.5813 15.7573 20.4609C15.5655 20.3361 15.6101 19.9838 15.5455 19.7319C15.4964 19.5446 15.463 19.3507 15.4117 19.1634C15.3761 19.0297 15.4206 18.9918 15.5522 18.994C15.7862 19.0007 16.0203 18.994 16.3057 18.994L16.3035 18.9962Z" fill="#EAEDEF"/>
<path d="M17.1418 22.1909C17.1418 22.24 17.1418 22.289 17.1418 22.3381C17.1418 22.9957 17.037 23.0782 16.3749 22.9645C16.2746 22.9467 16.2456 22.8954 16.2278 22.8152C16.1364 22.405 16.0539 21.9948 15.9558 21.5868C15.9224 21.4508 15.9825 21.4397 16.0873 21.4397C16.3794 21.4397 16.6736 21.4463 16.9657 21.4397C17.115 21.4352 17.1485 21.5043 17.1418 21.6358C17.1351 21.8209 17.1418 22.0059 17.1418 22.1932V22.1909Z" fill="#E6E8EA"/>
<path d="M18.0312 3.12357C18.0312 3.33313 18.0312 3.54268 18.0312 3.75224C17.2799 3.75447 16.5308 3.75224 15.7795 3.76339C15.4897 3.76785 15.5744 3.56944 15.57 3.4223C15.5633 3.27516 15.5187 3.10573 15.7795 3.11019C16.5308 3.12357 17.2799 3.11911 18.0312 3.12134V3.12357Z" fill="#827582"/>
<path d="M19.0877 22.9512C18.8157 22.9534 18.5437 22.9512 18.274 22.9646C18.1201 22.9713 18.0733 22.9178 18.0778 22.7662C18.0867 22.3983 18.0912 22.0283 18.0778 21.6604C18.0711 21.4687 18.1513 21.433 18.3185 21.4397C18.5705 21.4509 18.8224 21.4442 19.0743 21.4442C19.0787 21.9458 19.0832 22.4496 19.0899 22.9512H19.0877Z" fill="#CECED3"/>
<path d="M19.09 20.49C18.8069 20.4945 18.526 20.4945 18.2429 20.5056C18.1136 20.5101 18.0757 20.4566 18.0757 20.334C18.0801 19.9439 18.0801 19.5537 18.0757 19.1636C18.0757 19.0365 18.1225 18.9897 18.2473 18.9964C18.5282 19.012 18.8114 18.9696 19.0923 19.0187C19.0923 19.5091 19.09 19.9996 19.0878 20.49H19.09Z" fill="#CECED3"/>
<path d="M19.0965 18.0288C18.8089 18.0912 18.5169 18.0422 18.2271 18.0578C18.1111 18.0622 18.0777 17.9998 18.0799 17.895C18.0822 17.516 18.0844 17.1348 18.0799 16.7558C18.0799 16.6265 18.1312 16.5842 18.2538 16.5909C18.5347 16.6065 18.8178 16.5641 19.0987 16.6132C19.0987 17.0858 19.0987 17.5562 19.0987 18.0288H19.0965Z" fill="#CECED3"/>
<path d="M19.0876 22.9511C19.0832 22.4495 19.0787 21.9457 19.072 21.4441C19.2571 21.4418 19.4421 21.4463 19.6271 21.4329C19.8367 21.4151 19.9303 21.482 19.9169 21.7093C19.9013 22.0304 19.9036 22.3514 19.9169 22.6724C19.9259 22.882 19.8701 22.9823 19.6405 22.9622C19.4577 22.9444 19.2704 22.9555 19.0854 22.9533L19.0876 22.9511Z" fill="#665C66"/>
<path d="M19.0901 20.49L19.0945 19.0186C19.64 18.9949 19.9127 19.2453 19.9127 19.7699C19.9127 20.2619 19.6675 20.5034 19.177 20.4945C19.1481 20.4945 19.1191 20.49 19.0901 20.4878V20.49Z" fill="#665C66"/>
<path d="M19.0969 18.0287C19.0969 17.5561 19.0969 17.0857 19.0969 16.6131C19.6424 16.5893 19.9151 16.8494 19.9151 17.3933C19.9151 17.8273 19.7011 18.0421 19.273 18.0376C19.2151 18.0376 19.1571 18.0331 19.0992 18.0287H19.0969Z" fill="#665C66"/>
<path d="M18.0379 24.3109L15.2825 24.2975C15.3962 24.0167 15.628 23.9074 15.9045 23.9052C16.6134 23.8985 17.3223 23.9096 18.0312 23.9119C18.0312 24.0412 18.0312 24.1682 18.0312 24.2975L18.0379 24.3109Z" fill="#EAEDEF"/>
<path d="M18.031 24.2975C18.031 24.1682 18.031 24.0411 18.031 23.9118C18.3632 23.9074 18.6931 23.9029 19.0253 23.8984C19.0275 24.1816 18.8358 24.2752 18.6039 24.2997C18.4145 24.3198 18.2227 24.2997 18.031 24.2975Z" fill="#CECED3"/>
<path d="M6.63928 17.9463C6.94246 17.9463 7.24565 17.9463 7.54884 17.9463C7.96127 17.9441 8.29121 18.1024 8.51414 18.4501C8.59217 18.5705 8.63898 18.5906 8.74599 18.4836C8.8909 18.3387 9.04472 18.2005 9.20523 18.0734C9.41702 17.9062 9.66447 17.9263 9.83836 18.1091C10.0145 18.2941 10.0189 18.5728 9.8183 18.7667C9.50173 19.0721 9.17402 19.3664 8.84408 19.6562C8.7393 19.7476 8.69472 19.8435 8.69917 19.9839C8.71032 20.3072 8.70809 20.6282 8.69917 20.9514C8.6858 21.5935 8.22656 22.0617 7.58897 22.0728C6.95361 22.0839 6.31825 22.0817 5.6829 22.0728C5.04977 22.0639 4.58384 21.6314 4.55931 20.996C4.53479 20.3428 4.53702 19.6874 4.55931 19.032C4.57938 18.3922 5.03193 17.9664 5.67175 17.9485C5.995 17.9396 6.31602 17.9485 6.63928 17.9485V17.9463ZM7.74502 20.7107C7.6447 20.7129 7.61126 20.782 7.55776 20.8221C7.30584 21.0094 7.09629 21.0116 6.87336 20.7999C6.56125 20.5034 6.25806 20.2002 5.96156 19.8881C5.76761 19.6852 5.7743 19.4132 5.95264 19.2304C6.13545 19.0431 6.39405 19.032 6.6103 19.2215C6.77972 19.3686 6.93132 19.5358 7.09183 19.6919C7.13865 19.7387 7.181 19.8033 7.2568 19.8011C7.3482 19.7967 7.74279 19.3619 7.75394 19.2572C7.78738 18.9651 7.7205 18.8871 7.42623 18.8849C6.88004 18.8826 6.33163 18.8893 5.78544 18.8826C5.57366 18.8804 5.48226 18.9584 5.48448 19.1747C5.49117 19.7209 5.4934 20.2693 5.48448 20.8155C5.48003 21.0585 5.58258 21.1409 5.82111 21.1365C6.33832 21.1253 6.85775 21.1343 7.37495 21.132C7.75171 21.132 7.76286 21.1164 7.74502 20.7085V20.7107Z" fill="#272424"/>
<path d="M8.60766 13.2067C8.8083 13.0261 8.98442 12.8567 9.17168 12.7029C9.40353 12.5112 9.67105 12.529 9.84939 12.7363C10.0144 12.9281 10.0032 13.1978 9.79812 13.394C9.515 13.6637 9.22741 13.9313 8.92868 14.1809C8.75925 14.3236 8.67454 14.473 8.69014 14.7026C8.71244 14.9835 8.69906 15.2688 8.6946 15.552C8.68123 16.2096 8.21753 16.6689 7.55765 16.6756C6.9312 16.6822 6.30699 16.6822 5.68055 16.6756C5.05411 16.6689 4.58818 16.2564 4.5592 15.6322C4.52799 14.959 4.53022 14.2835 4.5592 13.6102C4.58372 12.9838 5.04296 12.5669 5.66941 12.5558C6.2468 12.5468 6.8242 12.5669 7.39936 12.5491C7.92771 12.5312 8.33568 12.7074 8.60543 13.2067H8.60766ZM7.73822 15.3112C7.23439 15.6724 7.12739 15.6612 6.70158 15.2354C6.47419 15.008 6.24457 14.7829 6.01718 14.551C5.77641 14.3058 5.75858 14.0293 5.96145 13.8309C6.16878 13.6281 6.42515 13.6504 6.68375 13.8978C6.83089 14.0405 6.97802 14.1832 7.11847 14.3325C7.19872 14.4172 7.26337 14.4485 7.35701 14.3481C7.46178 14.2344 7.58886 14.1386 7.69141 14.0204C7.79841 13.8956 7.7672 13.7418 7.72262 13.6035C7.68249 13.4742 7.55319 13.4921 7.44841 13.4921C6.89108 13.4921 6.33375 13.4988 5.77864 13.4898C5.55794 13.4854 5.4866 13.5835 5.48883 13.7886C5.49552 14.3258 5.49998 14.8631 5.48883 15.4004C5.48214 15.6612 5.59361 15.7392 5.84106 15.7325C6.35827 15.7192 6.87547 15.7303 7.3949 15.7281C7.74937 15.7281 7.76274 15.7125 7.74268 15.3112H7.73822Z" fill="#262425"/>
<path d="M8.60748 7.81848C8.80589 7.64013 8.97755 7.47962 9.15589 7.32803C9.3922 7.12739 9.64635 7.12962 9.83584 7.32803C10.0253 7.52867 10.0075 7.81179 9.77565 8.02804C9.468 8.31562 9.15589 8.59652 8.83933 8.87295C8.73455 8.96435 8.68996 9.05799 8.69442 9.20066C8.70557 9.52391 8.70334 9.84494 8.69442 10.1682C8.68105 10.8147 8.22626 11.2762 7.58199 11.2851C6.94663 11.294 6.31127 11.294 5.67591 11.2851C5.0361 11.2784 4.57686 10.8504 4.55456 10.2105C4.53227 9.55736 4.53227 8.8997 4.55456 8.24651C4.57686 7.59555 5.04724 7.16975 5.70044 7.16752C6.26669 7.16529 6.83516 7.18089 7.40141 7.16306C7.92976 7.14522 8.3355 7.3258 8.60302 7.82294L8.60748 7.81848ZM7.73358 9.92073C7.63549 9.92965 7.59314 10.0188 7.52403 10.0679C7.32339 10.2061 7.10937 10.2239 6.93102 10.059C6.58771 9.74016 6.25331 9.41022 5.93452 9.06467C5.7584 8.87518 5.77623 8.65002 5.95012 8.45607C6.11286 8.27103 6.38261 8.25543 6.58325 8.41594C6.69026 8.50065 6.78166 8.60543 6.87752 8.70129C7.27211 9.09365 7.32562 9.0892 7.68677 8.65002C7.69346 8.64333 7.70237 8.63664 7.70683 8.62995C7.79378 8.49397 7.77371 8.34683 7.72912 8.20861C7.689 8.07931 7.55747 8.1016 7.45269 8.1016C6.89536 8.1016 6.33802 8.10829 5.78069 8.09715C5.56222 8.09269 5.48196 8.17963 5.48419 8.38919C5.48865 8.93537 5.49311 9.48379 5.48419 10.03C5.47973 10.2797 5.58674 10.351 5.82082 10.3443C6.33802 10.3332 6.85746 10.3421 7.37466 10.3398C7.76479 10.3398 7.78263 10.3176 7.73135 9.91628L7.73358 9.92073Z" fill="#262425"/>
<path d="M13.6905 9.89628C14.5488 9.89628 15.4093 9.89628 16.2676 9.89628C16.515 9.89628 16.7135 9.96762 16.7982 10.2173C16.8896 10.4915 16.7313 10.7568 16.4459 10.8148C16.3412 10.8348 16.2319 10.8371 16.1249 10.8371C14.4841 10.8371 12.8433 10.8371 11.2048 10.8371C11.1268 10.8371 11.0487 10.8371 10.9707 10.8281C10.6854 10.7925 10.5137 10.6097 10.5182 10.3511C10.5248 10.0925 10.7054 9.90742 10.9952 9.90074C11.4255 9.88959 11.8535 9.89628 12.2838 9.89628C12.7519 9.89628 13.2201 9.89628 13.6905 9.89628Z" fill="#292727"/>
<path d="M13.6928 7.61994C14.5422 7.61994 15.3916 7.61994 16.241 7.61994C16.6177 7.61994 16.8206 7.78714 16.8206 8.08587C16.8206 8.38237 16.6132 8.55848 16.241 8.56071C14.5221 8.56294 12.8033 8.56517 11.0845 8.56071C10.6543 8.56071 10.4068 8.24192 10.5562 7.90306C10.6587 7.67344 10.8527 7.61771 11.0845 7.61994C11.954 7.6244 12.8234 7.61994 13.6928 7.61994Z" fill="#292727"/>
<path d="M12.3552 21.6112C11.916 21.6112 11.4746 21.6156 11.0354 21.6112C10.7256 21.6067 10.5316 21.4351 10.5205 21.1698C10.5093 20.8889 10.7055 20.6816 11.0221 20.6771C11.9316 20.6682 12.8412 20.6682 13.7508 20.6771C14.054 20.6793 14.239 20.88 14.2345 21.1542C14.2301 21.4284 14.0428 21.6067 13.7352 21.6112C13.2759 21.6179 12.8167 21.6112 12.3552 21.6112Z" fill="#262425"/>
<path d="M12.1101 19.3351C11.7489 19.3351 11.3878 19.3418 11.0266 19.3351C10.7145 19.3284 10.5273 19.1523 10.5184 18.8848C10.5094 18.6061 10.7056 18.4032 11.0222 18.3988C11.7534 18.3899 12.4846 18.3899 13.2181 18.3988C13.5324 18.4032 13.7397 18.6128 13.733 18.8803C13.7241 19.1411 13.5279 19.3262 13.2225 19.3329C12.8525 19.3418 12.4802 19.3329 12.1101 19.3329V19.3351Z" fill="#292727"/>
<path d="M11.8849 16.2185C11.5928 16.2185 11.2986 16.2252 11.0065 16.2185C10.7167 16.2096 10.5317 16.0357 10.5205 15.7793C10.5094 15.5207 10.681 15.3 10.9619 15.2933C11.5861 15.2755 12.2126 15.2777 12.8368 15.2955C13.0954 15.3022 13.276 15.5296 13.2715 15.7637C13.2671 16.0179 13.0776 16.2096 12.7944 16.2185C12.4913 16.2274 12.1881 16.2207 11.8849 16.2207V16.2185Z" fill="#292727"/>
<path d="M15.659 13.0105C15.8931 13.0105 16.1272 13.0015 16.3591 13.0127C16.6333 13.0283 16.8049 13.1977 16.8183 13.4474C16.8317 13.7127 16.6689 13.9245 16.388 13.9356C15.911 13.9557 15.4339 13.9535 14.959 13.9334C14.696 13.9223 14.5288 13.7038 14.5377 13.4608C14.5466 13.2178 14.7227 13.0305 14.9902 13.0149C15.2132 13.0015 15.4383 13.0127 15.6613 13.0127L15.659 13.0105Z" fill="#292727"/>
<path d="M11.2271 2.19167C11.2226 2.46588 10.9886 2.69327 10.7166 2.68658C10.4424 2.6799 10.2217 2.45028 10.2239 2.17384C10.2284 1.89294 10.4491 1.68116 10.7344 1.68562C11.0175 1.69007 11.2338 1.91078 11.2271 2.19167Z" fill="#272424"/>
<path d="M7.74495 20.7106C7.76279 21.1186 7.75164 21.132 7.37488 21.1342C6.85768 21.1342 6.33825 21.1275 5.82104 21.1387C5.58473 21.1431 5.48219 21.0606 5.48441 20.8176C5.49333 20.2715 5.4911 19.723 5.48441 19.1769C5.48219 18.9628 5.57359 18.8826 5.78537 18.8848C6.33156 18.8915 6.87997 18.8848 7.42616 18.887C7.72043 18.887 7.78731 18.9673 7.75387 19.2593C7.74272 19.3641 7.34813 19.7988 7.25673 19.8033C7.1787 19.8055 7.13858 19.7409 7.09176 19.6941C6.93125 19.538 6.77965 19.3708 6.61023 19.2237C6.39398 19.0342 6.13538 19.0453 5.95257 19.2326C5.77423 19.4154 5.76754 19.6874 5.96149 19.8902C6.25799 20.2023 6.56341 20.5055 6.87329 20.802C7.09399 21.0138 7.30355 21.0094 7.55769 20.8243C7.61119 20.7842 7.64463 20.7173 7.74495 20.7129V20.7106Z" fill="#F75E69"/>
<path d="M7.73836 15.3113C7.75619 15.7148 7.74504 15.7281 7.39058 15.7281C6.87338 15.7281 6.35394 15.7192 5.83674 15.7326C5.58928 15.7393 5.48005 15.6613 5.48451 15.4004C5.49565 14.8632 5.49119 14.3259 5.48451 13.7886C5.48451 13.5835 5.55362 13.4854 5.77432 13.4899C6.33165 13.4988 6.88675 13.4921 7.44409 13.4921C7.55109 13.4921 7.67816 13.4743 7.71829 13.6036C7.76288 13.7418 7.79409 13.8956 7.68708 14.0205C7.58453 14.1386 7.45746 14.2323 7.35268 14.3482C7.25905 14.4507 7.1944 14.4173 7.11414 14.3326C6.9737 14.1832 6.82656 14.0405 6.67943 13.8979C6.42082 13.6482 6.16668 13.6259 5.95712 13.831C5.75425 14.0316 5.77209 14.3058 6.01286 14.5511C6.23802 14.7807 6.46764 15.0081 6.69726 15.2355C7.12529 15.6613 7.23007 15.6724 7.7339 15.3113H7.73836Z" fill="#67ECBB"/>
<path d="M7.73387 9.92061C7.78514 10.3219 7.76731 10.342 7.37718 10.3442C6.85997 10.3442 6.34054 10.3353 5.82333 10.3486C5.58926 10.3531 5.48225 10.284 5.48671 10.0343C5.49785 9.48812 5.49339 8.93971 5.48671 8.39352C5.48671 8.18397 5.56473 8.09702 5.78321 8.10148C6.34054 8.11263 6.89787 8.10371 7.4552 8.10594C7.56221 8.10594 7.69151 8.08142 7.73164 8.21295C7.774 8.34894 7.79629 8.4983 7.70935 8.63429C7.70489 8.64321 7.69597 8.64767 7.68928 8.65435C7.32813 9.09353 7.27463 9.09799 6.88004 8.70563C6.78417 8.60977 6.69054 8.50499 6.58576 8.42027C6.38512 8.25976 6.11538 8.27537 5.95264 8.4604C5.77875 8.65435 5.76091 8.87952 5.93703 9.06901C6.25582 9.41233 6.58799 9.7445 6.93354 10.0633C7.11189 10.2283 7.3259 10.2104 7.52654 10.0722C7.59565 10.0254 7.63801 9.93399 7.7361 9.92507L7.73387 9.92061Z" fill="#80C0F5"/>
</svg>
