<?xml version="1.0" encoding="UTF-8"?>
<svg id="Layer_1" data-name="Layer 1" xmlns="http://www.w3.org/2000/svg" viewBox="0 0 48.6 8.6">
  <defs>
    <style>
      .cls-1 {
        opacity: .4;
      }

      .cls-2 {
        fill: #fff;
      }

      .cls-2, .cls-3 {
        stroke-width: 0px;
      }

      .cls-3 {
        fill: #c40505;
      }
    </style>
  </defs>
  <g>
    <circle class="cls-3" cx="4.3" cy="4.3" r="4.3"/>
    <g>
      <path class="cls-2" d="M4.26,1.78c.13.04.27.07.4.11.14.05.28.12.4.22.21.18.28.41.23.69,0,.04-.02.07-.03.11-.02.05-.03.1.01.16.04.06.03.14.01.22-.01.08-.03.17-.08.24,0,.01-.01.03-.01.04-.06.26-.18.5-.39.68-.32.29-.67.3-1.01,0-.21-.19-.34-.42-.4-.69,0-.01,0-.03-.01-.04-.08-.11-.09-.25-.09-.38,0-.04.03-.07.04-.11,0-.02,0-.04,0-.06-.04-.16-.06-.31-.02-.47.06-.28.32-.65.75-.7,0,0,.02,0,.03,0,.06,0,.11,0,.17,0Z"/>
      <path class="cls-2" d="M4.3,6.81c-.46,0-.92-.02-1.38-.1-.18-.03-.36-.09-.54-.13-.07-.02-.11-.06-.12-.13-.01-.1-.02-.2-.02-.3,0-.26.03-.51.1-.76.05-.2.12-.39.24-.56.08-.12.21-.18.34-.23.18-.07.35-.14.52-.21.02,0,.03-.01.05-.03.05-.04.09-.04.14,0,.02.02.03.03.03.06,0,.18,0,.36,0,.54,0,.03,0,.05.01.08.18.49.37.98.55,1.46,0,0,0,0,0,.01.01.04.04.08.09.08.05,0,.07-.04.09-.08.04-.11.08-.22.12-.33.14-.38.29-.77.43-1.15,0-.03.01-.05.01-.08,0-.18,0-.36-.01-.54,0-.06.04-.07.08-.1.01,0,.04,0,.06.01.18.11.37.18.56.24.22.07.37.2.47.41.12.26.19.54.21.83.01.17.02.34.02.51,0,.03,0,.07-.02.1-.02.07-.06.11-.12.13-.29.1-.59.15-.89.18-.34.03-.68.04-1.02.07,0,0,0,0,0-.01Z"/>
      <path class="cls-2" d="M4.26,4.95c-.07-.1-.14-.21-.22-.34.17.06.34.05.51,0-.08.12-.15.23-.22.33.06.06.11.12.17.19.01.02.02.04.02.06-.06.41-.13.81-.2,1.22,0,.02-.02.03-.02.04,0-.01-.03-.03-.03-.04-.07-.4-.13-.81-.2-1.21,0-.03,0-.05.02-.07.06-.06.11-.12.17-.18Z"/>
    </g>
  </g>
  <g>
    <circle class="cls-3" cx="14.3" cy="4.3" r="4.3"/>
    <g>
      <path class="cls-2" d="M14.26,1.78c.13.04.27.07.4.11.14.05.28.12.4.22.21.18.28.41.23.69,0,.04-.02.07-.03.11-.02.05-.03.1.01.16.04.06.03.14.01.22-.01.08-.03.17-.08.24,0,.01-.01.03-.01.04-.06.26-.18.5-.39.68-.32.29-.67.3-1.01,0-.21-.19-.34-.42-.4-.69,0-.01,0-.03-.01-.04-.08-.11-.09-.25-.09-.38,0-.04.03-.07.04-.11,0-.02,0-.04,0-.06-.04-.16-.06-.31-.02-.47.06-.28.32-.65.75-.7,0,0,.02,0,.03,0,.06,0,.11,0,.17,0Z"/>
      <path class="cls-2" d="M14.3,6.81c-.46,0-.92-.02-1.38-.1-.18-.03-.36-.09-.54-.13-.07-.02-.11-.06-.12-.13-.01-.1-.02-.2-.02-.3,0-.26.03-.51.1-.76.05-.2.12-.39.24-.56.08-.12.21-.18.34-.23.18-.07.35-.14.52-.21.02,0,.03-.01.05-.03.05-.04.09-.04.14,0,.02.02.03.03.03.06,0,.18,0,.36,0,.54,0,.03,0,.05.01.08.18.49.37.98.55,1.46,0,0,0,0,0,.01.01.04.04.08.09.08.05,0,.07-.04.09-.08.04-.11.08-.22.12-.33.14-.38.29-.77.43-1.15,0-.03.01-.05.01-.08,0-.18,0-.36-.01-.54,0-.06.04-.07.08-.1.01,0,.04,0,.06.01.18.11.37.18.56.24.22.07.37.2.47.41.12.26.19.54.21.83.01.17.02.34.02.51,0,.03,0,.07-.02.1-.02.07-.06.11-.12.13-.29.1-.59.15-.89.18-.34.03-.68.04-1.02.07,0,0,0,0,0-.01Z"/>
      <path class="cls-2" d="M14.26,4.95c-.07-.1-.14-.21-.22-.34.17.06.34.05.51,0-.08.12-.15.23-.22.33.06.06.11.12.17.19.01.02.02.04.02.06-.06.41-.13.81-.2,1.22,0,.02-.02.03-.02.04,0-.01-.03-.03-.03-.04-.07-.4-.13-.81-.2-1.21,0-.03,0-.05.02-.07.06-.06.11-.12.17-.18Z"/>
    </g>
  </g>
  <g class="cls-1">
    <circle class="cls-3" cx="24.3" cy="4.3" r="4.3"/>
    <g>
      <path class="cls-2" d="M24.26,1.78c.13.04.27.07.4.11.14.05.28.12.4.22.21.18.28.41.23.69,0,.04-.02.07-.03.11-.02.05-.03.1.01.16.04.06.03.14.01.22-.01.08-.03.17-.08.24,0,.01-.01.03-.01.04-.06.26-.18.5-.39.68-.32.29-.67.3-1.01,0-.21-.19-.34-.42-.4-.69,0-.01,0-.03-.01-.04-.08-.11-.09-.25-.09-.38,0-.04.03-.07.04-.11,0-.02,0-.04,0-.06-.04-.16-.06-.31-.02-.47.06-.28.32-.65.75-.7,0,0,.02,0,.03,0,.06,0,.11,0,.17,0Z"/>
      <path class="cls-2" d="M24.3,6.81c-.46,0-.92-.02-1.38-.1-.18-.03-.36-.09-.54-.13-.07-.02-.11-.06-.12-.13-.01-.1-.02-.2-.02-.3,0-.26.03-.51.1-.76.05-.2.12-.39.24-.56.08-.12.21-.18.34-.23.18-.07.35-.14.52-.21.02,0,.03-.01.05-.03.05-.04.09-.04.14,0,.02.02.03.03.03.06,0,.18,0,.36,0,.54,0,.03,0,.05.01.08.18.49.37.98.55,1.46,0,0,0,0,0,.01.01.04.04.08.09.08.05,0,.07-.04.09-.08.04-.11.08-.22.12-.33.14-.38.29-.77.43-1.15,0-.03.01-.05.01-.08,0-.18,0-.36-.01-.54,0-.06.04-.07.08-.1.01,0,.04,0,.06.01.18.11.37.18.56.24.22.07.37.2.47.41.12.26.19.54.21.83.01.17.02.34.02.51,0,.03,0,.07-.02.1-.02.07-.06.11-.12.13-.29.1-.59.15-.89.18-.34.03-.68.04-1.02.07,0,0,0,0,0-.01Z"/>
      <path class="cls-2" d="M24.26,4.95c-.07-.1-.14-.21-.22-.34.17.06.34.05.51,0-.08.12-.15.23-.22.33.06.06.11.12.17.19.01.02.02.04.02.06-.06.41-.13.81-.2,1.22,0,.02-.02.03-.02.04,0-.01-.03-.03-.03-.04-.07-.4-.13-.81-.2-1.21,0-.03,0-.05.02-.07.06-.06.11-.12.17-.18Z"/>
    </g>
  </g>
  <g class="cls-1">
    <circle class="cls-3" cx="34.3" cy="4.3" r="4.3"/>
    <g>
      <path class="cls-2" d="M34.26,1.78c.13.04.27.07.4.11.14.05.28.12.4.22.21.18.28.41.23.69,0,.04-.02.07-.03.11-.02.05-.03.1.01.16.04.06.03.14.01.22-.01.08-.03.17-.08.24,0,.01-.01.03-.01.04-.06.26-.18.5-.39.68-.32.29-.67.3-1.01,0-.21-.19-.34-.42-.4-.69,0-.01,0-.03-.01-.04-.08-.11-.09-.25-.09-.38,0-.04.03-.07.04-.11,0-.02,0-.04,0-.06-.04-.16-.06-.31-.02-.47.06-.28.32-.65.75-.7,0,0,.02,0,.03,0,.06,0,.11,0,.17,0Z"/>
      <path class="cls-2" d="M34.3,6.81c-.46,0-.92-.02-1.38-.1-.18-.03-.36-.09-.54-.13-.07-.02-.11-.06-.12-.13-.01-.1-.02-.2-.02-.3,0-.26.03-.51.1-.76.05-.2.12-.39.24-.56.08-.12.21-.18.34-.23.18-.07.35-.14.52-.21.02,0,.03-.01.05-.03.05-.04.09-.04.14,0,.02.02.03.03.03.06,0,.18,0,.36,0,.54,0,.03,0,.05.01.08.18.49.37.98.55,1.46,0,0,0,0,0,.01.01.04.04.08.09.08.05,0,.07-.04.09-.08.04-.11.08-.22.12-.33.14-.38.29-.77.43-1.15,0-.03.01-.05.01-.08,0-.18,0-.36-.01-.54,0-.06.04-.07.08-.1.01,0,.04,0,.06.01.18.11.37.18.56.24.22.07.37.2.47.41.12.26.19.54.21.83.01.17.02.34.02.51,0,.03,0,.07-.02.1-.02.07-.06.11-.12.13-.29.1-.59.15-.89.18-.34.03-.68.04-1.02.07,0,0,0,0,0-.01Z"/>
      <path class="cls-2" d="M34.26,4.95c-.07-.1-.14-.21-.22-.34.17.06.34.05.51,0-.08.12-.15.23-.22.33.06.06.11.12.17.19.01.02.02.04.02.06-.06.41-.13.81-.2,1.22,0,.02-.02.03-.02.04,0-.01-.03-.03-.03-.04-.07-.4-.13-.81-.2-1.21,0-.03,0-.05.02-.07.06-.06.11-.12.17-.18Z"/>
    </g>
  </g>
  <g class="cls-1">
    <circle class="cls-3" cx="44.3" cy="4.3" r="4.3"/>
    <g>
      <path class="cls-2" d="M44.26,1.78c.13.04.27.07.4.11.14.05.28.12.4.22.21.18.28.41.23.69,0,.04-.02.07-.03.11-.02.05-.03.1.01.16.04.06.03.14.01.22-.01.08-.03.17-.08.24,0,.01-.01.03-.01.04-.06.26-.18.5-.39.68-.32.29-.67.3-1.01,0-.21-.19-.34-.42-.4-.69,0-.01,0-.03-.01-.04-.08-.11-.09-.25-.09-.38,0-.04.03-.07.04-.11,0-.02,0-.04,0-.06-.04-.16-.06-.31-.02-.47.06-.28.32-.65.75-.7,0,0,.02,0,.03,0,.06,0,.11,0,.17,0Z"/>
      <path class="cls-2" d="M44.3,6.81c-.46,0-.92-.02-1.38-.1-.18-.03-.36-.09-.54-.13-.07-.02-.11-.06-.12-.13-.01-.1-.02-.2-.02-.3,0-.26.03-.51.1-.76.05-.2.12-.39.24-.56.08-.12.21-.18.34-.23.18-.07.35-.14.52-.21.02,0,.03-.01.05-.03.05-.04.09-.04.14,0,.02.02.03.03.03.06,0,.18,0,.36,0,.54,0,.03,0,.05.01.08.18.49.37.98.55,1.46,0,0,0,0,0,.01.01.04.04.08.09.08.05,0,.07-.04.09-.08.04-.11.08-.22.12-.33.14-.38.29-.77.43-1.15,0-.03.01-.05.01-.08,0-.18,0-.36-.01-.54,0-.06.04-.07.08-.1.01,0,.04,0,.06.01.18.11.37.18.56.24.22.07.37.2.47.41.12.26.19.54.21.83.01.17.02.34.02.51,0,.03,0,.07-.02.1-.02.07-.06.11-.12.13-.29.1-.59.15-.89.18-.34.03-.68.04-1.02.07,0,0,0,0,0-.01Z"/>
      <path class="cls-2" d="M44.26,4.95c-.07-.1-.14-.21-.22-.34.17.06.34.05.51,0-.08.12-.15.23-.22.33.06.06.11.12.17.19.01.02.02.04.02.06-.06.41-.13.81-.2,1.22,0,.02-.02.03-.02.04,0-.01-.03-.03-.03-.04-.07-.4-.13-.81-.2-1.21,0-.03,0-.05.02-.07.06-.06.11-.12.17-.18Z"/>
    </g>
  </g>
</svg>