<?xml version="1.0" encoding="UTF-8"?>
<svg id="Layer_1" data-name="Layer 1" xmlns="http://www.w3.org/2000/svg" viewBox="0 0 48.6 8.6">
  <defs>
    <style>
      .cls-1 {
        fill: #fff;
        fill-rule: evenodd;
      }

      .cls-1, .cls-2 {
        stroke-width: 0px;
      }

      .cls-2 {
        fill: #4ebe27;
      }
    </style>
  </defs>
  <circle class="cls-2" cx="4.3" cy="4.3" r="4.3"/>
  <path class="cls-1" d="M2.71,5.95s.11.06.17.06c0,0,0,0,0,0h.32v-1.71h-.32s0,0,0,0c0,0,0,0,0,0-.06,0-.12.02-.17.06-.04.04-.07.09-.08.14v1.3c.01.06.04.11.08.14ZM3.57,4.15v1.85h1.95s.09-.02.12-.05c.03-.03.06-.07.06-.12l.26-1.71h0s0-.05,0-.08c0-.03-.02-.05-.04-.07-.02-.02-.04-.04-.07-.05s-.05-.02-.08-.02h0s-1.07,0-1.07,0c-.1,0-.19-.08-.19-.19v-.76c0-.1-.04-.2-.11-.27-.04-.04-.1-.07-.15-.09l-.68,1.54ZM3.26,3.92l.71-1.59c.03-.07.1-.11.17-.11.2,0,.39.08.54.22.14.14.22.33.22.54v.57h.88c.08,0,.16.02.24.05.08.03.14.08.2.15.05.06.09.14.12.21.02.08.03.16.02.24l-.26,1.71h0c-.02.14-.09.26-.19.35-.1.09-.24.14-.37.14h-2.64c-.15,0-.3-.05-.42-.15-.12-.1-.19-.24-.21-.39,0,0,0-.02,0-.03v-1.33s0-.02,0-.03c.02-.15.1-.29.21-.39.12-.1.26-.15.42-.15h.38Z"/>
  <circle class="cls-2" cx="14.3" cy="4.3" r="4.3"/>
  <path class="cls-1" d="M12.71,5.95s.11.06.17.06c0,0,0,0,0,0h.32v-1.71h-.32s0,0,0,0c0,0,0,0,0,0-.06,0-.12.02-.17.06-.04.04-.07.09-.08.14v1.3c.01.06.04.11.08.14ZM13.57,4.15v1.85h1.95s.09-.02.12-.05c.03-.03.06-.07.06-.12l.26-1.71h0s0-.05,0-.08c0-.03-.02-.05-.04-.07-.02-.02-.04-.04-.07-.05s-.05-.02-.08-.02h0s-1.07,0-1.07,0c-.1,0-.19-.08-.19-.19v-.76c0-.1-.04-.2-.11-.27-.04-.04-.1-.07-.15-.09l-.68,1.54ZM13.26,3.92l.71-1.59c.03-.07.1-.11.17-.11.2,0,.39.08.54.22.14.14.22.33.22.54v.57h.88c.08,0,.16.02.24.05.08.03.14.08.2.15.05.06.09.14.12.21.02.08.03.16.02.24l-.26,1.71h0c-.02.14-.09.26-.19.35-.1.09-.24.14-.37.14h-2.64c-.15,0-.3-.05-.42-.15-.12-.1-.19-.24-.21-.39,0,0,0-.02,0-.03v-1.33s0-.02,0-.03c.02-.15.1-.29.21-.39.12-.1.26-.15.42-.15h.38Z"/>
  <circle class="cls-2" cx="24.3" cy="4.3" r="4.3"/>
  <path class="cls-1" d="M22.71,5.95s.11.06.17.06c0,0,0,0,0,0h.32v-1.71h-.32s0,0,0,0c0,0,0,0,0,0-.06,0-.12.02-.17.06-.04.04-.07.09-.08.14v1.3c.01.06.04.11.08.14ZM23.57,4.15v1.85h1.95s.09-.02.12-.05c.03-.03.06-.07.06-.12l.26-1.71h0s0-.05,0-.08c0-.03-.02-.05-.04-.07-.02-.02-.04-.04-.07-.05s-.05-.02-.08-.02h0s-1.07,0-1.07,0c-.1,0-.19-.08-.19-.19v-.76c0-.1-.04-.2-.11-.27-.04-.04-.1-.07-.15-.09l-.68,1.54ZM23.26,3.92l.71-1.59c.03-.07.1-.11.17-.11.2,0,.39.08.54.22.14.14.22.33.22.54v.57h.88c.08,0,.16.02.24.05.08.03.14.08.2.15.05.06.09.14.12.21.02.08.03.16.02.24l-.26,1.71h0c-.02.14-.09.26-.19.35-.1.09-.24.14-.37.14h-2.64c-.15,0-.3-.05-.42-.15-.12-.1-.19-.24-.21-.39,0,0,0-.02,0-.03v-1.33s0-.02,0-.03c.02-.15.1-.29.21-.39.12-.1.26-.15.42-.15h.38Z"/>
  <circle class="cls-2" cx="34.3" cy="4.3" r="4.3"/>
  <path class="cls-1" d="M32.71,5.95s.11.06.17.06c0,0,0,0,0,0h.32v-1.71h-.32s0,0,0,0c0,0,0,0,0,0-.06,0-.12.02-.17.06-.04.04-.07.09-.08.14v1.3c.01.06.04.11.08.14ZM33.57,4.15v1.85h1.95s.09-.02.12-.05c.03-.03.06-.07.06-.12l.26-1.71h0s0-.05,0-.08c0-.03-.02-.05-.04-.07-.02-.02-.04-.04-.07-.05s-.05-.02-.08-.02h0s-1.07,0-1.07,0c-.1,0-.19-.08-.19-.19v-.76c0-.1-.04-.2-.11-.27-.04-.04-.1-.07-.15-.09l-.68,1.54ZM33.26,3.92l.71-1.59c.03-.07.1-.11.17-.11.2,0,.39.08.54.22.14.14.22.33.22.54v.57h.88c.08,0,.16.02.24.05.08.03.14.08.2.15.05.06.09.14.12.21.02.08.03.16.02.24l-.26,1.71h0c-.02.14-.09.26-.19.35-.1.09-.24.14-.37.14h-2.64c-.15,0-.3-.05-.42-.15-.12-.1-.19-.24-.21-.39,0,0,0-.02,0-.03v-1.33s0-.02,0-.03c.02-.15.1-.29.21-.39.12-.1.26-.15.42-.15h.38Z"/>
  <circle class="cls-2" cx="44.3" cy="4.3" r="4.3"/>
  <path class="cls-1" d="M42.71,5.95s.11.06.17.06c0,0,0,0,0,0h.32v-1.71h-.32s0,0,0,0c0,0,0,0,0,0-.06,0-.12.02-.17.06-.04.04-.07.09-.08.14v1.3c.01.06.04.11.08.14ZM43.57,4.15v1.85h1.95s.09-.02.12-.05c.03-.03.06-.07.06-.12l.26-1.71h0s0-.05,0-.08c0-.03-.02-.05-.04-.07-.02-.02-.04-.04-.07-.05s-.05-.02-.08-.02h0s-1.07,0-1.07,0c-.1,0-.19-.08-.19-.19v-.76c0-.1-.04-.2-.11-.27-.04-.04-.1-.07-.15-.09l-.68,1.54ZM43.26,3.92l.71-1.59c.03-.07.1-.11.17-.11.2,0,.39.08.54.22.14.14.22.33.22.54v.57h.88c.08,0,.16.02.24.05.08.03.14.08.2.15.05.06.09.14.12.21.02.08.03.16.02.24l-.26,1.71h0c-.02.14-.09.26-.19.35-.1.09-.24.14-.37.14h-2.64c-.15,0-.3-.05-.42-.15-.12-.1-.19-.24-.21-.39,0,0,0-.02,0-.03v-1.33s0-.02,0-.03c.02-.15.1-.29.21-.39.12-.1.26-.15.42-.15h.38Z"/>
</svg>