<?xml version="1.0" encoding="UTF-8"?>
<svg id="Layer_1" data-name="Layer 1" xmlns="http://www.w3.org/2000/svg" viewBox="0 0 48.6 8.6">
  <defs>
    <style>
      .cls-1 {
        opacity: .4;
      }

      .cls-2 {
        fill: #fff;
      }

      .cls-2, .cls-3 {
        stroke-width: 0px;
      }

      .cls-3 {
        fill: #4ebe27;
      }
    </style>
  </defs>
  <g>
    <circle class="cls-3" cx="4.3" cy="4.3" r="4.3"/>
    <g>
      <path class="cls-2" d="M4.44,2.02c0,.18,0,.35,0,.53,0,.03,0,.04.03.05.09.04.15.1.19.19.01.03.03.04.06.04.51,0,1.02,0,1.53,0,.02,0,.04,0,.06,0v.27h-.33s.01.04.02.05c.19.46.38.92.57,1.37.02.06.02.11,0,.17-.06.31-.33.54-.65.55-.13,0-.25,0-.38-.01-.3-.04-.55-.32-.56-.63,0-.02,0-.04.01-.06.19-.46.38-.93.57-1.39,0-.01,0-.03.02-.04h-.9c-.04.11-.12.19-.22.23,0,0-.01.02-.02.03,0,0,0,.01,0,.02,0,.61,0,1.22,0,1.82v.04c.27.07.45.24.52.52h-1.3c0-.2.21-.42.51-.52,0-.01,0-.03,0-.05,0-.6,0-1.21,0-1.81,0-.03,0-.05-.04-.07-.09-.04-.15-.11-.19-.19,0-.01-.02-.03-.03-.03-.29,0-.58,0-.88,0,0,.02.01.04.02.05.19.46.37.91.56,1.37.02.06.02.12,0,.17-.06.31-.33.54-.65.54-.12,0-.24,0-.36,0-.29-.04-.52-.26-.57-.56,0,0,0-.02,0-.02,0-.03,0-.06,0-.09,0,0,0-.01.01-.02.19-.47.38-.94.58-1.41,0,0,0-.02,0-.03h-.33v-.27s.04,0,.06,0c.51,0,1.02,0,1.53,0,.03,0,.04,0,.06-.04.04-.09.11-.15.19-.19.03-.01.03-.03.03-.05,0-.18,0-.35,0-.53h.27ZM3.29,4.43c-.16-.37-.31-.74-.47-1.12-.16.38-.31.75-.47,1.12h.93ZM6.25,4.43c-.16-.37-.31-.74-.47-1.12-.16.38-.31.75-.47,1.12h.93Z"/>
      <path class="cls-2" d="M3.1,6.58c0-.07,0-.14,0-.21.03-.19.19-.33.38-.33.54,0,1.08,0,1.62,0,.21,0,.38.18.39.39,0,.05,0,.1,0,.15h-2.4Z"/>
    </g>
  </g>
  <g>
    <circle class="cls-3" cx="14.3" cy="4.3" r="4.3"/>
    <g>
      <path class="cls-2" d="M14.44,2.02c0,.18,0,.35,0,.53,0,.03,0,.04.03.05.09.04.15.1.19.19.01.03.03.04.06.04.51,0,1.02,0,1.53,0,.02,0,.04,0,.06,0v.27h-.33s.01.04.02.05c.19.46.38.92.57,1.37.02.06.02.11,0,.17-.06.31-.33.54-.65.55-.13,0-.25,0-.38-.01-.3-.04-.55-.32-.56-.63,0-.02,0-.04.01-.06.19-.46.38-.93.57-1.39,0-.01,0-.03.02-.04h-.9c-.04.11-.12.19-.22.23,0,0-.01.02-.02.03,0,0,0,.01,0,.02,0,.61,0,1.22,0,1.82v.04c.27.07.45.24.52.52h-1.3c0-.2.21-.42.51-.52,0-.01,0-.03,0-.05,0-.6,0-1.21,0-1.81,0-.03,0-.05-.04-.07-.09-.04-.15-.11-.19-.19,0-.01-.02-.03-.03-.03-.29,0-.58,0-.88,0,0,.02.01.04.02.05.19.46.37.91.56,1.37.02.06.02.12,0,.17-.06.31-.33.54-.65.54-.12,0-.24,0-.36,0-.29-.04-.52-.26-.57-.56,0,0,0-.02,0-.02,0-.03,0-.06,0-.09,0,0,0-.01.01-.02.19-.47.38-.94.58-1.41,0,0,0-.02,0-.03h-.33v-.27s.04,0,.06,0c.51,0,1.02,0,1.53,0,.03,0,.04,0,.06-.04.04-.09.11-.15.19-.19.03-.01.03-.03.03-.05,0-.18,0-.35,0-.53h.27ZM13.29,4.43c-.16-.37-.31-.74-.47-1.12-.16.38-.31.75-.47,1.12h.93ZM16.25,4.43c-.16-.37-.31-.74-.47-1.12-.16.38-.31.75-.47,1.12h.93Z"/>
      <path class="cls-2" d="M13.1,6.58c0-.07,0-.14,0-.21.03-.19.19-.33.38-.33.54,0,1.08,0,1.62,0,.21,0,.38.18.39.39,0,.05,0,.1,0,.15h-2.4Z"/>
    </g>
  </g>
  <g>
    <circle class="cls-3" cx="24.3" cy="4.3" r="4.3"/>
    <g>
      <path class="cls-2" d="M24.44,2.02c0,.18,0,.35,0,.53,0,.03,0,.04.03.05.09.04.15.1.19.19.01.03.03.04.06.04.51,0,1.02,0,1.53,0,.02,0,.04,0,.06,0v.27h-.33s.01.04.02.05c.19.46.38.92.57,1.37.02.06.02.11,0,.17-.06.31-.33.54-.65.55-.13,0-.25,0-.38-.01-.3-.04-.55-.32-.56-.63,0-.02,0-.04.01-.06.19-.46.38-.93.57-1.39,0-.01,0-.03.02-.04h-.9c-.04.11-.12.19-.22.23,0,0-.01.02-.02.03,0,0,0,.01,0,.02,0,.61,0,1.22,0,1.82v.04c.27.07.45.24.52.52h-1.3c0-.2.21-.42.51-.52,0-.01,0-.03,0-.05,0-.6,0-1.21,0-1.81,0-.03,0-.05-.04-.07-.09-.04-.15-.11-.19-.19,0-.01-.02-.03-.03-.03-.29,0-.58,0-.88,0,0,.02.01.04.02.05.19.46.37.91.56,1.37.02.06.02.12,0,.17-.06.31-.33.54-.65.54-.12,0-.24,0-.36,0-.29-.04-.52-.26-.57-.56,0,0,0-.02,0-.02,0-.03,0-.06,0-.09,0,0,0-.01.01-.02.19-.47.38-.94.58-1.41,0,0,0-.02,0-.03h-.33v-.27s.04,0,.06,0c.51,0,1.02,0,1.53,0,.03,0,.04,0,.06-.04.04-.09.11-.15.19-.19.03-.01.03-.03.03-.05,0-.18,0-.35,0-.53h.27ZM23.29,4.43c-.16-.37-.31-.74-.47-1.12-.16.38-.31.75-.47,1.12h.93ZM26.25,4.43c-.16-.37-.31-.74-.47-1.12-.16.38-.31.75-.47,1.12h.93Z"/>
      <path class="cls-2" d="M23.1,6.58c0-.07,0-.14,0-.21.03-.19.19-.33.38-.33.54,0,1.08,0,1.62,0,.21,0,.38.18.39.39,0,.05,0,.1,0,.15h-2.4Z"/>
    </g>
  </g>
  <g class="cls-1">
    <circle class="cls-3" cx="34.3" cy="4.3" r="4.3"/>
    <g>
      <path class="cls-2" d="M34.44,2.02c0,.18,0,.35,0,.53,0,.03,0,.04.03.05.09.04.15.1.19.19.01.03.03.04.06.04.51,0,1.02,0,1.53,0,.02,0,.04,0,.06,0v.27h-.33s.01.04.02.05c.19.46.38.92.57,1.37.02.06.02.11,0,.17-.06.31-.33.54-.65.55-.13,0-.25,0-.38-.01-.3-.04-.55-.32-.56-.63,0-.02,0-.04.01-.06.19-.46.38-.93.57-1.39,0-.01,0-.03.02-.04h-.9c-.04.11-.12.19-.22.23,0,0-.01.02-.02.03,0,0,0,.01,0,.02,0,.61,0,1.22,0,1.82v.04c.27.07.45.24.52.52h-1.3c0-.2.21-.42.51-.52,0-.01,0-.03,0-.05,0-.6,0-1.21,0-1.81,0-.03,0-.05-.04-.07-.09-.04-.15-.11-.19-.19,0-.01-.02-.03-.03-.03-.29,0-.58,0-.88,0,0,.02.01.04.02.05.19.46.37.91.56,1.37.02.06.02.12,0,.17-.06.31-.33.54-.65.54-.12,0-.24,0-.36,0-.29-.04-.52-.26-.57-.56,0,0,0-.02,0-.02,0-.03,0-.06,0-.09,0,0,0-.01.01-.02.19-.47.38-.94.58-1.41,0,0,0-.02,0-.03h-.33v-.27s.04,0,.06,0c.51,0,1.02,0,1.53,0,.03,0,.04,0,.06-.04.04-.09.11-.15.19-.19.03-.01.03-.03.03-.05,0-.18,0-.35,0-.53h.27ZM33.29,4.43c-.16-.37-.31-.74-.47-1.12-.16.38-.31.75-.47,1.12h.93ZM36.25,4.43c-.16-.37-.31-.74-.47-1.12-.16.38-.31.75-.47,1.12h.93Z"/>
      <path class="cls-2" d="M33.1,6.58c0-.07,0-.14,0-.21.03-.19.19-.33.38-.33.54,0,1.08,0,1.62,0,.21,0,.38.18.39.39,0,.05,0,.1,0,.15h-2.4Z"/>
    </g>
  </g>
  <g class="cls-1">
    <circle class="cls-3" cx="44.3" cy="4.3" r="4.3"/>
    <g>
      <path class="cls-2" d="M44.44,2.02c0,.18,0,.35,0,.53,0,.03,0,.04.03.05.09.04.15.1.19.19.01.03.03.04.06.04.51,0,1.02,0,1.53,0,.02,0,.04,0,.06,0v.27h-.33s.01.04.02.05c.19.46.38.92.57,1.37.02.06.02.11,0,.17-.06.31-.33.54-.65.55-.13,0-.25,0-.38-.01-.3-.04-.55-.32-.56-.63,0-.02,0-.04.01-.06.19-.46.38-.93.57-1.39,0-.01,0-.03.02-.04h-.9c-.04.11-.12.19-.22.23,0,0-.01.02-.02.03,0,0,0,.01,0,.02,0,.61,0,1.22,0,1.82v.04c.27.07.45.24.52.52h-1.3c0-.2.21-.42.51-.52,0-.01,0-.03,0-.05,0-.6,0-1.21,0-1.81,0-.03,0-.05-.04-.07-.09-.04-.15-.11-.19-.19,0-.01-.02-.03-.03-.03-.29,0-.58,0-.88,0,0,.02.01.04.02.05.19.46.37.91.56,1.37.02.06.02.12,0,.17-.06.31-.33.54-.65.54-.12,0-.24,0-.36,0-.29-.04-.52-.26-.57-.56,0,0,0-.02,0-.02,0-.03,0-.06,0-.09,0,0,0-.01.01-.02.19-.47.38-.94.58-1.41,0,0,0-.02,0-.03h-.33v-.27s.04,0,.06,0c.51,0,1.02,0,1.53,0,.03,0,.04,0,.06-.04.04-.09.11-.15.19-.19.03-.01.03-.03.03-.05,0-.18,0-.35,0-.53h.27ZM43.29,4.43c-.16-.37-.31-.74-.47-1.12-.16.38-.31.75-.47,1.12h.93ZM46.25,4.43c-.16-.37-.31-.74-.47-1.12-.16.38-.31.75-.47,1.12h.93Z"/>
      <path class="cls-2" d="M43.1,6.58c0-.07,0-.14,0-.21.03-.19.19-.33.38-.33.54,0,1.08,0,1.62,0,.21,0,.38.18.39.39,0,.05,0,.1,0,.15h-2.4Z"/>
    </g>
  </g>
</svg>