<svg width="12" height="13" viewBox="0 0 12 13" fill="none" xmlns="http://www.w3.org/2000/svg">
<path fill-rule="evenodd" clip-rule="evenodd" d="M10.3296 1.79133C10.2018 1.68156 10.038 1.62257 9.86952 1.62555C9.86643 1.6256 9.86333 1.62563 9.86024 1.62563H8.98349V6.35063H9.86024C9.86172 6.35063 9.8632 6.35064 9.86469 6.35065C9.8663 6.35066 9.86791 6.35068 9.86952 6.35071C10.038 6.35369 10.2018 6.2947 10.3296 6.18493C10.4498 6.08178 10.5305 5.94053 10.5585 5.78528V2.19098C10.5305 2.03573 10.4498 1.89448 10.3296 1.79133ZM7.93349 6.76422V1.62563H2.53649L2.53055 1.6256C2.40394 1.62416 2.28108 1.66854 2.1846 1.75054C2.08813 1.83255 2.02454 1.94666 2.00555 2.07185L1.28104 6.79691L1.281 6.79721C1.26964 6.87236 1.27473 6.94908 1.29592 7.02207C1.31714 7.09516 1.35399 7.16276 1.40393 7.22019C1.45387 7.27762 1.5157 7.32351 1.58513 7.35467C1.65456 7.38583 1.72994 7.40152 1.80604 7.40066L1.81199 7.40063H4.78349C5.07344 7.40063 5.30849 7.63568 5.30849 7.92563V10.0256C5.30849 10.3041 5.41911 10.5712 5.61603 10.7681C5.73564 10.8877 5.88115 10.9755 6.03938 11.026L7.93349 6.76422ZM8.79967 7.40063L6.83824 11.8139C6.75398 12.0034 6.56596 12.1256 6.35849 12.1256C5.80153 12.1256 5.26739 11.9044 4.87356 11.5106C4.47974 11.1167 4.25849 10.5826 4.25849 10.0256V8.45063H1.81467C1.58748 8.45273 1.3625 8.40565 1.1552 8.31261C0.946895 8.21912 0.761411 8.08147 0.611594 7.90918C0.461777 7.73689 0.35121 7.53409 0.287553 7.31482C0.223896 7.09556 0.20867 6.86508 0.242933 6.63935L0.967422 1.91441L0.967494 1.91394C1.02454 1.53856 1.21527 1.19642 1.50457 0.950508C1.79317 0.705199 2.16048 0.572133 2.53916 0.575629H9.85601C10.28 0.569364 10.6917 0.718338 11.0135 0.994591C11.3366 1.27194 11.5467 1.65828 11.6038 2.08026C11.6069 2.10358 11.6085 2.12709 11.6085 2.15063V5.82563C11.6085 5.84917 11.6069 5.87268 11.6038 5.896C11.5467 6.31798 11.3366 6.70432 11.0135 6.98167C10.6917 7.25792 10.28 7.40689 9.85601 7.40063H8.79967Z" fill="white"/>
</svg>
