<?xml version="1.0" encoding="UTF-8"?>
<svg id="Layer_1" data-name="Layer 1" xmlns="http://www.w3.org/2000/svg" viewBox="0 0 48.6 8.6">
  <defs>
    <style>
      .cls-1 {
        opacity: .4;
      }

      .cls-2 {
        fill: #fff;
      }

      .cls-2, .cls-3 {
        stroke-width: 0px;
      }

      .cls-3 {
        fill: #c40505;
      }
    </style>
  </defs>
  <g>
    <circle class="cls-3" cx="4.3" cy="4.3" r="4.3"/>
    <g>
      <path class="cls-2" d="M2.34,5.87s0-.04.02-.05c.04-.14.19-.25.33-.24v.22s-.02,0-.03.01c-.05.02-.08.07-.08.12,0,.05.05.1.11.1.02,0,.03,0,.05,0,1.16,0,2.33,0,3.49,0h.06v.23h-3.63s-.02,0-.03,0c-.13-.03-.21-.11-.25-.23,0-.02-.01-.04-.02-.06,0-.03,0-.06,0-.09Z"/>
      <path class="cls-2" d="M4.17,3.3c-.05-.05-.09-.11-.09-.18,0-.1.05-.17.13-.21.09-.04.17-.03.24.03,0,0,.02.02.03.02.36.36.71.71,1.07,1.07.06.06.09.14.07.22-.04.17-.24.24-.38.12-.01,0-.02-.02-.03-.03,0,.01-.01.02-.02.04-.15.32-.31.65-.46.97-.01.03-.03.04-.06.04-.56.11-1.12.22-1.67.33-.02,0-.04,0-.05-.02-.05-.05-.1-.1-.15-.15-.01-.01-.02-.03-.02-.05.11-.56.22-1.12.33-1.68,0-.03.02-.04.04-.05.33-.15.65-.31.98-.46.01,0,.02-.01.03-.02ZM4.08,4.65s.05,0,.07,0c.12-.03.19-.15.17-.27-.02-.12-.14-.19-.26-.18-.12.02-.2.12-.19.24,0,.03,0,.06-.03.08-.25.25-.5.5-.75.75-.01.01-.02.03-.03.04-.01.04-.02.09-.03.13,0,.04,0,.05.04.04.03,0,.07-.02.1-.02.04,0,.06-.02.08-.05.24-.25.49-.49.74-.74.02-.02.05-.05.08-.03Z"/>
      <path class="cls-2" d="M4.65,2.79c.15-.15.3-.3.45-.45.36.36.72.72,1.08,1.08-.15.15-.3.3-.45.45-.36-.36-.72-.72-1.08-1.08Z"/>
    </g>
  </g>
  <g>
    <circle class="cls-3" cx="14.3" cy="4.3" r="4.3"/>
    <g>
      <path class="cls-2" d="M12.34,5.87s0-.04.02-.05c.04-.14.19-.25.33-.24v.22s-.02,0-.03.01c-.05.02-.08.07-.08.12,0,.05.05.1.11.1.02,0,.03,0,.05,0,1.16,0,2.33,0,3.49,0h.06v.23h-3.63s-.02,0-.03,0c-.13-.03-.21-.11-.25-.23,0-.02-.01-.04-.02-.06,0-.03,0-.06,0-.09Z"/>
      <path class="cls-2" d="M14.17,3.3c-.05-.05-.09-.11-.09-.18,0-.1.05-.17.13-.21.09-.04.17-.03.24.03,0,0,.02.02.03.02.36.36.71.71,1.07,1.07.06.06.09.14.07.22-.04.17-.24.24-.38.12-.01,0-.02-.02-.03-.03,0,.01-.01.02-.02.04-.15.32-.31.65-.46.97-.01.03-.03.04-.06.04-.56.11-1.12.22-1.67.33-.02,0-.04,0-.05-.02-.05-.05-.1-.1-.15-.15-.01-.01-.02-.03-.02-.05.11-.56.22-1.12.33-1.68,0-.03.02-.04.04-.05.33-.15.65-.31.98-.46.01,0,.02-.01.03-.02ZM14.08,4.65s.05,0,.07,0c.12-.03.19-.15.17-.27-.02-.12-.14-.19-.26-.18-.12.02-.2.12-.19.24,0,.03,0,.06-.03.08-.25.25-.5.5-.75.75-.01.01-.02.03-.03.04-.01.04-.02.09-.03.13,0,.04,0,.05.04.04.03,0,.07-.02.1-.02.04,0,.06-.02.08-.05.24-.25.49-.49.74-.74.02-.02.05-.05.08-.03Z"/>
      <path class="cls-2" d="M14.65,2.79c.15-.15.3-.3.45-.45.36.36.72.72,1.08,1.08-.15.15-.3.3-.45.45-.36-.36-.72-.72-1.08-1.08Z"/>
    </g>
  </g>
  <g class="cls-1">
    <circle class="cls-3" cx="24.3" cy="4.3" r="4.3"/>
    <g>
      <path class="cls-2" d="M22.34,5.87s0-.04.02-.05c.04-.14.19-.25.33-.24v.22s-.02,0-.03.01c-.05.02-.08.07-.08.12,0,.05.05.1.11.1.02,0,.03,0,.05,0,1.16,0,2.33,0,3.49,0h.06v.23h-3.63s-.02,0-.03,0c-.13-.03-.21-.11-.25-.23,0-.02-.01-.04-.02-.06,0-.03,0-.06,0-.09Z"/>
      <path class="cls-2" d="M24.17,3.3c-.05-.05-.09-.11-.09-.18,0-.1.05-.17.13-.21.09-.04.17-.03.24.03,0,0,.02.02.03.02.36.36.71.71,1.07,1.07.06.06.09.14.07.22-.04.17-.24.24-.38.12-.01,0-.02-.02-.03-.03,0,.01-.01.02-.02.04-.15.32-.31.65-.46.97-.01.03-.03.04-.06.04-.56.11-1.12.22-1.67.33-.02,0-.04,0-.05-.02-.05-.05-.1-.1-.15-.15-.01-.01-.02-.03-.02-.05.11-.56.22-1.12.33-1.68,0-.03.02-.04.04-.05.33-.15.65-.31.98-.46.01,0,.02-.01.03-.02ZM24.08,4.65s.05,0,.07,0c.12-.03.19-.15.17-.27-.02-.12-.14-.19-.26-.18-.12.02-.2.12-.19.24,0,.03,0,.06-.03.08-.25.25-.5.5-.75.75-.01.01-.02.03-.03.04-.01.04-.02.09-.03.13,0,.04,0,.05.04.04.03,0,.07-.02.1-.02.04,0,.06-.02.08-.05.24-.25.49-.49.74-.74.02-.02.05-.05.08-.03Z"/>
      <path class="cls-2" d="M24.65,2.79c.15-.15.3-.3.45-.45.36.36.72.72,1.08,1.08-.15.15-.3.3-.45.45-.36-.36-.72-.72-1.08-1.08Z"/>
    </g>
  </g>
  <g class="cls-1">
    <circle class="cls-3" cx="34.3" cy="4.3" r="4.3"/>
    <g>
      <path class="cls-2" d="M32.34,5.87s0-.04.02-.05c.04-.14.19-.25.33-.24v.22s-.02,0-.03.01c-.05.02-.08.07-.08.12,0,.05.05.1.11.1.02,0,.03,0,.05,0,1.16,0,2.33,0,3.49,0h.06v.23h-3.63s-.02,0-.03,0c-.13-.03-.21-.11-.25-.23,0-.02-.01-.04-.02-.06,0-.03,0-.06,0-.09Z"/>
      <path class="cls-2" d="M34.17,3.3c-.05-.05-.09-.11-.09-.18,0-.1.05-.17.13-.21.09-.04.17-.03.24.03,0,0,.02.02.03.02.36.36.71.71,1.07,1.07.06.06.09.14.07.22-.04.17-.24.24-.38.12-.01,0-.02-.02-.03-.03,0,.01-.01.02-.02.04-.15.32-.31.65-.46.97-.01.03-.03.04-.06.04-.56.11-1.12.22-1.67.33-.02,0-.04,0-.05-.02-.05-.05-.1-.1-.15-.15-.01-.01-.02-.03-.02-.05.11-.56.22-1.12.33-1.68,0-.03.02-.04.04-.05.33-.15.65-.31.98-.46.01,0,.02-.01.03-.02ZM34.08,4.65s.05,0,.07,0c.12-.03.19-.15.17-.27-.02-.12-.14-.19-.26-.18-.12.02-.2.12-.19.24,0,.03,0,.06-.03.08-.25.25-.5.5-.75.75-.01.01-.02.03-.03.04-.01.04-.02.09-.03.13,0,.04,0,.05.04.04.03,0,.07-.02.1-.02.04,0,.06-.02.08-.05.24-.25.49-.49.74-.74.02-.02.05-.05.08-.03Z"/>
      <path class="cls-2" d="M34.65,2.79c.15-.15.3-.3.45-.45.36.36.72.72,1.08,1.08-.15.15-.3.3-.45.45-.36-.36-.72-.72-1.08-1.08Z"/>
    </g>
  </g>
  <g class="cls-1">
    <circle class="cls-3" cx="44.3" cy="4.3" r="4.3"/>
    <g>
      <path class="cls-2" d="M42.34,5.87s0-.04.02-.05c.04-.14.19-.25.33-.24v.22s-.02,0-.03.01c-.05.02-.08.07-.08.12,0,.05.05.1.11.1.02,0,.03,0,.05,0,1.16,0,2.33,0,3.49,0h.06v.23h-3.63s-.02,0-.03,0c-.13-.03-.21-.11-.25-.23,0-.02-.01-.04-.02-.06,0-.03,0-.06,0-.09Z"/>
      <path class="cls-2" d="M44.17,3.3c-.05-.05-.09-.11-.09-.18,0-.1.05-.17.13-.21.09-.04.17-.03.24.03,0,0,.02.02.03.02.36.36.71.71,1.07,1.07.06.06.09.14.07.22-.04.17-.24.24-.38.12-.01,0-.02-.02-.03-.03,0,.01-.01.02-.02.04-.15.32-.31.65-.46.97-.01.03-.03.04-.06.04-.56.11-1.12.22-1.67.33-.02,0-.04,0-.05-.02-.05-.05-.1-.1-.15-.15-.01-.01-.02-.03-.02-.05.11-.56.22-1.12.33-1.68,0-.03.02-.04.04-.05.33-.15.65-.31.98-.46.01,0,.02-.01.03-.02ZM44.08,4.65s.05,0,.07,0c.12-.03.19-.15.17-.27-.02-.12-.14-.19-.26-.18-.12.02-.2.12-.19.24,0,.03,0,.06-.03.08-.25.25-.5.5-.75.75-.01.01-.02.03-.03.04-.01.04-.02.09-.03.13,0,.04,0,.05.04.04.03,0,.07-.02.1-.02.04,0,.06-.02.08-.05.24-.25.49-.49.74-.74.02-.02.05-.05.08-.03Z"/>
      <path class="cls-2" d="M44.65,2.79c.15-.15.3-.3.45-.45.36.36.72.72,1.08,1.08-.15.15-.3.3-.45.45-.36-.36-.72-.72-1.08-1.08Z"/>
    </g>
  </g>
</svg>